<?xml version="1.0" encoding="UTF-8"?>
<!DOCTYPE svg PUBLIC "-//W3C//DTD SVG 1.1//EN" "http://www.w3.org/Graphics/SVG/1.1/DTD/svg11.dtd">
<!-- Creator: CorelDRAW 2018 (64 Bit Versão de avaliação) -->
<svg xmlns="http://www.w3.org/2000/svg" xml:space="preserve" width="3.14961in" height="2.6378in" version="1.1" style="shape-rendering:geometricPrecision; text-rendering:geometricPrecision; image-rendering:optimizeQuality; fill-rule:evenodd; clip-rule:evenodd"
viewBox="0 0 3149.61 2637.8"
 xmlns:xlink="http://www.w3.org/1999/xlink">
 <defs>
  <style type="text/css">
   <![CDATA[
    .str0 {stroke:#009933;stroke-width:7.87;stroke-miterlimit:2.61313}
    .fil3 {fill:#009933}
    .fil0 {fill:#263238}
    .fil6 {fill:#455A64}
    .fil4 {fill:#E8505B}
    .fil9 {fill:#EB996E}
    .fil12 {fill:#EBD936}
    .fil14 {fill:#FAFAFA}
    .fil8 {fill:#FFBE9D}
    .fil1 {fill:#FFEE5C}
    .fil7 {fill:white}
    .fil5 {fill:white}
    .fil2 {fill:#455A64;fill-opacity:0.101961}
    .fil13 {fill:black;fill-opacity:0.301961}
    .fil11 {fill:white;fill-opacity:0.400000}
    .fil10 {fill:white;fill-opacity:0.501961}
   ]]>
  </style>
 </defs>
 <g id="Camada_x0020_1">
  <metadata id="CorelCorpID_0Corel-Layer"/>
  <g id="_1635247832752">
   <g id="Floor">
    <path class="fil0" d="M3870.53 2626.61c0,1.26 -870.94,2.35 -1944.99,2.35 -1074.05,0 -1945.07,-1.09 -1945.07,-2.35 0,-1.26 870.67,-2.35 1945.07,-2.35 1074.41,0 1944.99,1 1944.99,2.35z"/>
   </g>
   <g>
    <path class="fil1" d="M281.2 1504.2c-47.63,7.69 -68.88,66.44 -64.72,114.71 4.16,48.27 23.87,95.46 18.62,143.63 -6.69,61.2 -52.7,112.81 -58.03,174.09 -6.33,72.31 44.48,136.4 59.66,207.36 7.41,34.53 6.42,71.05 19.16,103.95 20.7,49.66 69.26,82.05 123.08,82.05 6.69,0 13.41,-0.52 20.02,-1.51 59.98,-12.47 103.89,-64.15 106.49,-125.38 1.08,-55.5 -33,-107.75 -28.84,-163.16 2.98,-40.95 27.12,-79.64 21.78,-120.4 -6.06,-48.45 -50.71,-82.8 -66.53,-128.99 -15.82,-46.19 -0.63,-97.08 -6.06,-145.63 -9.76,-87.05 -57.76,-147.7 -144.63,-140.74l-0.01 0.02 0.02 0.01zm0 0l0 0 0 0z"/>
   </g>
   <g>
    <path class="fil1" d="M38.13 1925.7c-8.04,80.63 27.12,175.54 68.7,245.24 41.63,69.98 104.62,124.97 179.61,156.74 8.41,3.52 18.89,6.51 25.94,0.72 4.43,-4.84 6.88,-11.16 6.88,-17.71 0,-1.03 -0.06,-2.07 -0.19,-3.09 0,-0.51 0,-1.1 0,-1.59 0,-84.98 -27.02,-167.77 -77.1,-236.4 -50.69,-68.59 -122.17,-119.14 -203.74,-144l-0.1 0.09 -0.01 0zm0 0l0 0 0 0z"/>
   </g>
   <g>
    <path class="fil2" d="M43.28 1930.85c-8.04,80.63 27.12,175.54 68.7,245.24 41.63,69.98 104.62,124.97 179.61,156.74 8.41,3.53 18.89,6.51 25.94,0.72 4.43,-4.84 6.88,-11.16 6.88,-17.7 0,-1.04 -0.06,-2.07 -0.19,-3.1 0,-0.51 0,-1.1 0,-1.59 0,-84.98 -27.02,-167.77 -77.1,-236.4 -50.69,-68.59 -122.17,-119.14 -203.74,-144m-0.11 0.09l0 0 0 0z"/>
   </g>
   <path class="fil0" d="M387.78 2496.35c-0.91,-1.42 -1.67,-2.94 -2.26,-4.52l-5.78 -13.2c-4.79,-11.57 -12.02,-28.11 -21.24,-48.45 -23.68,-52.8 -50.49,-104.98 -79.59,-155.07 -29.31,-50.01 -61.28,-99.01 -95.35,-145.91 -13.2,-18.08 -24.04,-32.54 -31.64,-42.39 -3.52,-4.7 -6.33,-8.5 -9.04,-11.48 -1.15,-1.22 -2.06,-2.66 -2.77,-4.19 1.25,1.1 2.4,2.31 3.43,3.61 2.44,2.89 5.61,6.51 9.04,11.03 8.05,9.49 19.35,23.68 32.81,41.49 35.26,46.5 67.92,95.3 97.49,145.55 29.28,50.19 55.72,102.7 78.72,155.94 9.04,20.61 15.64,37.42 19.89,49.17 2.08,5.42 3.71,9.94 4.97,13.46 0.57,1.63 1.03,3.28 1.32,4.94l0 0 0.01 0.02z"/>
   <path class="fil0" d="M336.07 1727.39c0.51,2.52 0.82,5.1 0.91,7.67 0.36,5.49 0.9,12.91 1.62,22.25 1.26,19.7 2.98,47.55 5.15,81.35 4.34,69.06 10.49,164.43 18.08,269.64 7.59,105.22 14.64,200.58 19.97,269.46 2.62,34.17 4.7,62.01 6.24,81.36 0.63,9.04 1.09,16.72 1.54,22.23 0.11,1.28 0.17,2.58 0.17,3.88 0,1.3 -0.06,2.59 -0.16,3.89 -0.59,-2.52 -0.99,-5.1 -1.18,-7.68 -0.54,-5.51 -1.36,-12.93 -2.35,-22.15 -1.81,-19.7 -4.43,-47.46 -7.59,-81.35 -6.15,-68.88 -13.93,-164.06 -21.33,-269.37 -7.41,-105.31 -12.93,-200.67 -16.45,-269.82 -1.63,-34.17 -2.89,-62.01 -3.8,-81.81 0,-9.04 -0.54,-16.72 -0.72,-22.24 -0.11,-1.44 -0.17,-2.9 -0.17,-4.35 0,-0.98 0.04,-1.99 0.08,-2.97l-0.01 0 0.01 0.01z"/>
   <path class="fil3 str0" d="M261.04 2381.28l202.03 0 0 148.33c-0.04,53.53 -43.45,96.93 -96.98,96.98l-0.01 0.01c0,0 -0.03,0 -0.04,0 -51.55,0 -94.09,-40.37 -96.78,-91.84l-8.22 -153.48 0 -0z"/>
   <path class="fil4" d="M2891.94 1161.07c-10.02,-7.38 -22.16,-11.38 -34.61,-11.38 -1.48,0 -2.98,0.06 -4.45,0.17 0,-7.5 0,-12.2 0,-12.2l-213.5 0c0,0 -6.69,140.83 101.15,145.8 48.18,2.17 75.84,-19.43 91.66,-46.65 7.88,1.93 16,2.94 24.13,2.98 0.76,0.03 1.53,0.05 2.3,0.05 11.16,0 22.07,-3.33 31.33,-9.54 10.17,-8.04 16.09,-20.29 16.09,-33.25 0,-0.97 -0.03,-1.94 -0.09,-2.9 0.03,-0.67 0.05,-1.36 0.05,-2.04 0,-11.89 -5.13,-23.21 -14.06,-31.05l0 0 -0 0.01zm-14.74 52.79c-9.04,6.87 -25.4,5.78 -36.16,3.89 5.43,-14.88 8.95,-30.51 10.39,-46.28 1.61,-0.2 3.24,-0.3 4.86,-0.3 7.74,0 15.31,2.24 21.81,6.44 4.2,3.94 6.59,9.46 6.59,15.22 0,0.62 -0.03,1.24 -0.09,1.86 0.09,0.8 0.14,1.62 0.14,2.43 0,6.4 -2.75,12.5 -7.55,16.74l0 0 0.01 0z"/>
   <path class="fil5" d="M2790.34 1124.83c1.03,-1.6 1.62,-3.44 1.72,-5.33 -0.68,-5.52 -4.07,-10.34 -9.04,-12.84 -3.63,-1.72 -7.46,-3.04 -11.39,-3.88 -4.93,-1 -9.59,-3.08 -13.65,-6.06 -4.43,-3.91 -6.96,-9.54 -6.96,-15.45 0,-0.15 0,-0.31 0,-0.46 0.07,-6.57 1.96,-13.03 5.43,-18.62 7.32,-11.84 20.52,-19.35 29.74,-31 6.39,-8.83 9.84,-19.48 9.84,-30.39 0,-5.01 -0.73,-10.02 -2.16,-14.81 -2.2,-8.28 -6.54,-15.87 -12.56,-21.96 -6.74,-6.02 -14.45,-10.88 -22.78,-14.37 -9.23,-3.87 -17.49,-9.79 -24.14,-17.26 -3.07,-4.29 -5.21,-9.2 -6.24,-14.38 -0.39,-1.73 -0.59,-3.51 -0.59,-5.29 0,-3.75 0.89,-7.46 2.58,-10.8 1.49,-2.5 3.49,-4.66 5.87,-6.33l2.44 4.07c-13.24,8.24 -21.31,22.76 -21.31,38.37 0,2.83 0.27,5.68 0.79,8.45 1.35,8.55 5.49,16.43 11.75,22.41 6.88,5.45 12.98,11.86 18.09,18.99 2.08,3.67 3.18,7.83 3.18,12.06 0,0.38 -0.01,0.76 -0.03,1.13 -0.32,4.38 -1.58,8.64 -3.7,12.48 -4,7.09 -9.66,13.14 -16.45,17.62 -13.11,8.31 -26.58,12.48 -36.16,20.07 -9.19,6.49 -15.05,16.73 -16,27.94 -0.17,1.6 -0.25,3.23 -0.25,4.84 0,6.85 1.51,13.63 4.41,19.83 3.28,6.5 8.02,12.17 13.83,16.54 5.81,4.37 -0.45,0 -1.26,-0.63 -1.3,-0.64 -2.52,-1.43 -3.62,-2.35 -4.39,-3.44 -8.01,-7.79 -10.58,-12.74 -3.48,-6.77 -5.31,-14.3 -5.31,-21.92 0,-1.28 0.06,-2.57 0.15,-3.84 0.44,-5.59 1.94,-11.06 4.43,-16.09 2.98,-5.56 7.15,-10.42 12.2,-14.2 10.39,-8.22 24.13,-12.65 36.16,-20.7 6.24,-4.13 11.4,-9.72 15.01,-16.27 1.86,-3.3 2.84,-7.02 2.84,-10.81 0,-3.78 -0.98,-7.51 -2.84,-10.8 -5.17,-6.81 -11.27,-12.91 -18.09,-18.07 -6.92,-6.65 -11.53,-15.38 -13.09,-24.86 -0.57,-3.04 -0.87,-6.14 -0.87,-9.23 0,-17.3 8.94,-33.37 23.64,-42.48l2.44 4.07c-1.77,1.19 -3.26,2.76 -4.33,4.61 -1.2,3 -1.82,6.2 -1.82,9.42 0,5.82 2.02,11.48 5.71,15.98 6.19,6.9 13.85,12.35 22.42,15.9 8.74,3.81 16.86,9.02 23.96,15.37 6.49,6.68 11.18,14.94 13.56,23.96 1.41,4.94 2.13,10.07 2.13,15.22 0,12.06 -3.92,23.78 -11.17,33.41 -10.13,12.48 -23.23,19.62 -30.01,30.46 -6.78,10.84 -7.32,24.22 0,30.73 7.32,6.51 18.08,6.24 24.23,10.39 5.37,2.84 8.81,8.32 9.04,14.38 -0.13,1.55 -0.67,3.05 -1.54,4.34 0.81,0.91 0.37,1.26 0.37,1.17l-0.02 0.02z"/>
   <path class="fil6" d="M420.41 8.83l1040.15 0c16.13,0 29.2,13.07 29.2,29.2l0 249.57c0,16.13 -13.07,29.2 -29.19,29.2l-1040.16 0c-16.12,0 -29.19,-13.07 -29.19,-29.2l0 -249.57c0,-16.13 13.07,-29.2 29.2,-29.2l-0.01 0z"/>
   <path class="fil7" d="M622.8 214.21c-12.7,15.87 -31.95,25.13 -52.3,25.13 -36.98,0 -66.98,-30 -66.98,-66.98 0,-36.98 30,-66.98 66.98,-66.98 15.23,0 30.03,5.2 41.91,14.73 15.87,12.69 25.11,31.93 25.11,52.24 0,15.22 -5.2,30 -14.72,41.86l-0.01 0 0.01 0z"/>
   <path class="fil3" d="M608.35 149.57c-10.8,13.89 -22.97,26.91 -36.15,38.61l-9.04 8.5 -1.63 1.63 -1.54 -1.63c-10,-9.14 -19.13,-19.34 -27.12,-30.28 10.9,8 21.06,17.15 30.21,27.1l-3.18 0.01c2.8,-2.8 5.69,-5.69 9.04,-9.04 12.07,-12.71 25.3,-24.48 39.41,-34.89l0 -0.01z"/>
   <path class="fil1" d="M1382.55 140.27c0,1.26 -139.66,2.35 -311.85,2.35 -172.2,0 -311.94,-1.09 -311.94,-2.35 0,-1.26 139.66,-2.35 311.94,-2.35 172.29,0 311.85,1.09 311.85,2.35z"/>
   <path class="fil1" d="M1126.74 201.46c0,1.26 -80.81,2.35 -180.33,2.35 -99.53,0 -180.79,-1.09 -180.79,-2.35 0,-1.26 80.72,-2.35 180.79,-2.35 100.06,0 180.33,0.81 180.33,2.35z"/>
   <path class="fil6" d="M420.41 361.18l1040.15 0c16.13,0 29.2,13.07 29.2,29.2l0 249.57c0,16.13 -13.07,29.2 -29.19,29.2l-1040.16 0c-16.12,0 -29.19,-13.07 -29.19,-29.2l0 -249.57c0,-16.13 13.07,-29.2 29.2,-29.2l-0.01 0z"/>
   <path class="fil7" d="M622.8 566.56c-12.7,15.94 -31.98,25.24 -52.38,25.24 -36.98,0 -66.98,-30 -66.98,-66.98 0,-36.99 30,-66.98 66.98,-66.98 15.28,0 30.09,5.22 41.99,14.8 15.81,12.69 25.02,31.89 25.02,52.17 0,15.17 -5.17,29.91 -14.63,41.75l-0.01 0.01 0.02 -0.01z"/>
   <path class="fil3" d="M608.35 501.93c-10.86,13.83 -23.06,26.8 -36.16,38.51l-9.04 8.59 -1.63 1.54 -1.54 -1.54c-9.98,-9.17 -19.08,-19.36 -27.1,-30.29 10.88,8 21.04,17.15 30.19,27.1l-3.18 0.01 9.04 -9.04c12.09,-12.68 25.34,-24.45 39.41,-34.89l0 0 0.01 0.01z"/>
   <path class="fil1" d="M1382.55 492.62c0,1.26 -139.66,2.35 -311.85,2.35 -172.2,0 -311.94,-1.09 -311.94,-2.35 0,-1.26 139.66,-2.35 311.94,-2.35 172.29,0 311.85,0.99 311.85,2.35z"/>
   <path class="fil1" d="M1126.74 553.99c0,1.26 -80.81,2.35 -180.33,2.35 -99.53,0 -180.79,-1.09 -180.79,-2.35 0,-1.26 80.72,-2.35 180.79,-2.35 100.06,0 180.33,0.54 180.33,2.35z"/>
   <path class="fil6" d="M420.41 713.45l1040.15 0c16.13,0 29.2,13.07 29.2,29.19l0 249.57c0,16.13 -13.07,29.2 -29.19,29.2l-1040.16 0c-16.12,0 -29.19,-13.07 -29.19,-29.2l0 -249.57c0,-16.13 13.07,-29.2 29.2,-29.2l-0.01 0.01z"/>
   <path class="fil7" d="M622.8 918.82c-12.69,16.05 -32.04,25.41 -52.51,25.41 -36.99,0 -66.98,-30 -66.98,-66.98 0,-36.99 30,-66.98 66.98,-66.98 15.33,0 30.2,5.27 42.12,14.91 15.71,12.71 24.86,31.86 24.86,52.08 0,15.09 -5.09,29.75 -14.46,41.57l-0.01 0 0.01 -0.01z"/>
   <path class="fil3" d="M608.35 854.28c-10.86,13.83 -23.06,26.8 -36.16,38.51l-9.04 8.5 -1.63 1.63 -1.54 -1.63c-9.99,-9.14 -19.12,-19.35 -27.11,-30.29 10.84,8.06 21.02,17.17 30.19,27.11l-3.16 0.01 9.04 -8.59c12.04,-12.89 25.26,-24.75 39.42,-35.27l-0.01 0.02 0 0z"/>
   <path class="fil1" d="M1382.55 844.88c0,1.36 -139.66,2.35 -311.85,2.35 -172.2,0 -311.94,-1 -311.94,-2.35 0,-1.35 139.66,-2.35 311.94,-2.35 172.29,0 311.85,0.72 311.85,2.35z"/>
   <path class="fil1" d="M1126.74 905.81c0,1.36 -80.81,2.35 -180.33,2.35 -99.53,0 -180.79,-1 -180.79,-2.35 0,-1.35 80.72,-2.35 180.79,-2.35 100.06,0 180.33,1.09 180.33,2.35z"/>
   <polygon class="fil0" points="2112.39,1879.61 2095.03,2626.61 2062.13,2626.61 2064.21,1881.5 "/>
   <polygon class="fil0" points="2231.34,1871.37 2391.52,2626.61 2428.22,2626.61 2294.89,1871.37 "/>
   <polygon class="fil0" points="1931.06,1879.61 1753.8,2626.61 1717.1,2626.61 1877.91,1876.61 "/>
   <path class="fil0" d="M2439.34 1058.48c0,0 203.11,-11.57 182.77,223.36 -20.34,234.93 -31.91,472.94 -107.3,554.11 -75.39,81.18 -835.59,84.16 -899.41,17.45 -63.82,-66.71 121.85,-63.82 156.65,-63.82 34.8,0 249.48,20.33 319.18,-162.71 69.69,-183.04 52.16,-579.96 348.11,-568.39l-0 0z"/>
   <path class="fil6" d="M2452.36 1058.57c0,0 155.3,31.82 140.74,194.34 -14.56,162.52 -55.14,446.72 -130.53,519.22 -75.39,72.5 -370.61,88.41 -530.87,78.37 -185.67,-11.67 -302.91,-47 -302.91,-47 0,0 -33.9,21.78 -23.59,36.16 10.31,14.37 100.79,70.23 539.83,61.2 439.04,-9.04 408.31,-74.12 426.56,-144.63 18.26,-70.5 56.4,-447.9 51.07,-530.79 -5.33,-82.89 -47.19,-152.31 -170.3,-166.87z"/>
   <g>
    <path class="fil6" d="M2016.3 369.59c12.31,-4.24 25.26,-6.42 38.29,-6.42 38.98,0 75.45,19.35 97.3,51.62 19.62,30.28 24.13,68.52 44.2,98.53 14.19,21.24 35.16,36.88 52.43,55.78 17.27,18.89 31.55,43.57 27.11,68.79 -4.07,23.68 -24.13,44.56 -20.07,68.24 3.71,22.15 27.12,36.61 32,58.67 5.42,25.94 -19.62,50.26 -45.83,54.23 -26.21,3.98 -52.25,-6.06 -76.83,-15.91 -24.59,-9.85 -50.98,-19.52 -77.02,-14.82 -30.37,5.51 -53.52,29.29 -80.09,45.2 -25.01,14.27 -53.35,21.79 -82.16,21.79 -35.5,0 -70.11,-11.43 -98.63,-32.55 -19.97,-15.28 -37.33,-39.05 -32.54,-63.72 4.52,-22.96 26.67,-38.87 33.09,-61.38 9.67,-33.44 -18.08,-67.61 -14.01,-102.14 5.69,-46.55 63.27,-67.8 83.88,-109.74 10.03,-20.07 10.94,-43.66 19.8,-64.36 8.86,-20.7 31.82,-39.14 52.52,-30.28l46.55 -21.52 0.01 -0.01zm0 0l0 0 0 0z"/>
   </g>
   <path class="fil8" d="M1996.77 792.45c3.07,-16.45 -2.26,-86.06 -2.26,-86.06 0,0 -61.74,-7.87 -64.45,-70.78 -2.71,-62.91 3.61,-207.91 3.61,-207.91l113.62 -54.23 99.43 112.99 1.81 305.44 -151.77 0.54 0.01 0.01z"/>
   <path class="fil0" d="M1941.82 538.72c-0.04,0.28 -0.05,0.56 -0.05,0.84 0,4.34 3.52,7.86 7.87,7.86 4.34,0 7.86,-3.52 7.86,-7.86 0,-0.28 -0.01,-0.57 -0.04,-0.84 0.03,-0.28 0.04,-0.56 0.04,-0.84 0,-4.35 -3.52,-7.87 -7.86,-7.87 -4.35,0 -7.87,3.52 -7.87,7.87 0,0.28 0.02,0.56 0.05,0.84l0 0z"/>
   <path class="fil0" d="M1937.12 524.62c1,1.09 6.87,-3.89 15.28,-4.16 8.41,-0.27 14.74,3.89 15.64,2.8 0.9,-1.09 -0.54,-2.44 -3.26,-4.43 -3.38,-2.36 -7.43,-3.64 -11.56,-3.64 -0.33,0 -0.68,0.01 -1.01,0.02 -4.48,0.15 -8.79,1.81 -12.21,4.7 -2.89,2.26 -3.79,4.25 -2.89,4.7l0.01 0.01z"/>
   <path class="fil0" d="M2033.74 538.72c0,4.34 3.52,7.86 7.86,7.86 4.35,0 7.87,-3.52 7.87,-7.87 0,-4.31 -3.46,-7.81 -7.78,-7.87 -0.03,0 -0.06,0 -0.09,0 -4.34,0 -7.87,3.52 -7.87,7.87 0,0 0,0 0,0l0 0 0.01 0.01z"/>
   <path class="fil0" d="M2030.4 526.24c1,1.09 6.87,-3.89 15.36,-4.16 8.5,-0.27 14.64,3.89 15.55,2.8 0.91,-1.09 -0.54,-2.44 -3.26,-4.52 -3.37,-2.31 -7.35,-3.56 -11.44,-3.56 -0.38,0 -0.76,0.01 -1.13,0.03 -4.48,0.15 -8.79,1.81 -12.2,4.7 -2.53,2.26 -3.34,4.25 -2.89,4.7l0.01 0.01z"/>
   <path class="fil0" d="M1998.67 599.19c-4.5,-1.26 -9.17,-1.96 -13.83,-2.08 -2.17,0 -4.16,-0.54 -4.61,-2.08 -0.03,-0.37 -0.04,-0.74 -0.04,-1.1 0,-2.01 0.48,-3.99 1.4,-5.77 1.99,-5.69 3.98,-11.66 6.15,-18.07 5.64,-15.13 10.27,-30.81 13.56,-46.65 -6.78,14.59 -12.52,29.75 -17.09,45.18 -1.98,6.24 -3.97,12.2 -5.78,18.08 -0.89,1.88 -1.34,3.93 -1.34,5.98 0,1.03 0.11,2.07 0.34,3.07 0.63,1.59 1.97,2.79 3.61,3.25 0.61,0.08 1.24,0.13 1.85,0.13 0.62,0 1.24,-0.04 1.85,-0.13 2.5,0.39 5.05,0.59 7.59,0.59 2.11,0 4.24,-0.14 6.33,-0.41l0 0 0.01 0.01z"/>
   <path class="fil9" d="M1994.51 706.4c29.15,-0.95 57.45,-10.39 81.35,-27.11 23.91,-16.72 -19.26,45.83 -80.72,42.21l-0.63 -15.1z"/>
   <g>
    <path class="fil9" d="M2001.65 621.16c1.05,-5.43 4.75,-9.98 9.85,-12.11 1.69,-0.78 3.55,-1.18 5.42,-1.18 1.87,0 3.73,0.41 5.42,1.18 3.13,1.51 5.11,4.67 5.11,8.14 0,0.3 -0.02,0.6 -0.05,0.9 -1.07,4.3 -4.65,7.52 -9.04,8.13 -1.46,0.22 -2.93,0.33 -4.41,0.33 -2.76,0 -5.51,-0.38 -8.16,-1.14 -1.15,-0.2 -2.26,-0.64 -3.26,-1.26 -0.86,-0.55 -1.39,-1.5 -1.39,-2.52 0,-0.16 0.01,-0.31 0.04,-0.46l0.46 0 0.01 -0.01zm0 0l0 0 0 0z"/>
   </g>
   <path class="fil0" d="M2022.62 598.65c0.64,0 1.63,2.26 1.27,6.42 -0.49,5.41 -2.93,10.45 -6.87,14.19 -4,3.71 -9.2,5.9 -14.65,6.15 -4.07,0 -6.42,-1.09 -6.33,-1.72 0.09,-0.63 9.85,0 18.08,-7.87 8.22,-7.86 7.24,-17.26 8.5,-17.17z"/>
   <g>
    <path class="fil6" d="M1928.52 420.57c4.74,37.74 36.79,66.1 74.84,66.17 -5.7,-12.57 -11.48,-25.04 -17.18,-37.61 14.07,18.67 31.69,34.45 51.79,46.37 20.79,10.49 48.18,11.66 65.9,-3.44 5.78,15.37 5.69,32.45 10.94,48.09 5.24,15.64 18.08,79.82 33.99,77.37 15.91,-2.44 25.58,-67.07 29.38,-81.35 2.16,-9.62 3.27,-19.45 3.27,-29.31 0,-32.17 -11.64,-63.28 -32.73,-87.56 -30.46,-35.48 -74.92,-55.92 -121.69,-55.92 -3.43,0 -6.87,0.11 -10.28,0.33 -22.1,0.91 -43.46,8.41 -61.29,21.5 -15.26,12.11 -25.91,29.15 -30.1,48.18l3.16 -12.83 -0.01 0.01zm0 0l0 0 0 0z"/>
   </g>
   <path class="fil0" d="M1843.92 704.32c-1.45,-0.11 -2.89,-0.45 -4.25,-1 -4.04,-1.17 -7.97,-2.78 -11.66,-4.79 -13.76,-7.45 -25.19,-18.65 -32.91,-32.27 -7.06,-12.05 -10.78,-25.78 -10.78,-39.75 0,-9.42 1.7,-18.78 5,-27.6 4.91,-12.89 12.82,-24.46 23.05,-33.71 10.98,-10.05 24.54,-16.91 39.13,-19.8 6.79,-1.15 13.09,-4.3 18.08,-9.04 4.21,-5.11 6.63,-11.46 6.87,-18.08 1.09,-13.38 -4.16,-26.22 -5.6,-39.32 -0.3,-2.4 -0.45,-4.82 -0.45,-7.24 0,-21.61 12.08,-41.43 31.28,-51.33 9.04,-4.61 17,-7.59 24.04,-10.58 6.04,-2.4 11.84,-5.44 17.26,-9.04 4.58,-3.17 8.7,-6.98 12.21,-11.3 3.51,-4.31 -0.54,1.45 -1.99,3.98 -2.56,3.44 -5.6,6.49 -9.04,9.04 -5.35,3.95 -11.17,7.3 -17.28,9.94 -7.05,3.26 -15.19,6.51 -23.5,11.21 -17.59,9.44 -28.59,27.81 -28.59,47.8 0,2.42 0.17,4.86 0.49,7.26 1.36,12.38 6.87,25.31 5.87,40.22 -0.32,7.65 -3.16,14.99 -8.05,20.88 -5.65,5.41 -12.87,8.92 -20.61,10.03 -27.05,5.71 -49.37,24.78 -59.21,50.62 -3.33,8.63 -5.06,17.82 -5.06,27.08 0,12.97 3.37,25.73 9.76,37.01 7.17,13.31 17.85,24.48 30.82,32.27 9.4,5.52 15.28,7.05 15.09,7.51l0.03 -0.01z"/>
   <path class="fil0" d="M2253.49 787.12c0,0 5.33,-3.52 14.74,-10.3 13.44,-8.95 24.17,-21.48 30.91,-36.16 2.33,-5.91 3.54,-12.2 3.54,-18.56 0,-4.54 -0.61,-9.06 -1.82,-13.44 -1.61,-5.77 -4.74,-11.01 -9.04,-15.19 -4.95,-4.22 -10.39,-7.88 -16.18,-10.85 -13.45,-7.19 -22.17,-20.91 -22.96,-36.15 -0.63,-16.36 9.58,-30.01 13.2,-44.56 0.87,-4.11 1.31,-8.3 1.31,-12.5 0,-10.63 -2.83,-21.08 -8.18,-30.26 -6.89,-12.36 -16.11,-23.3 -27.13,-32.18 -20.7,-17.35 -42.3,-30.01 -57.22,-45.2 -12.3,-11.21 -21.47,-25.47 -26.57,-41.31 -1.18,-4.3 -1.91,-8.74 -2.17,-13.2 -0.12,-0.78 -0.18,-1.57 -0.18,-2.35 0,-0.79 0.06,-1.57 0.18,-2.35 0.78,5.86 2.03,11.69 3.71,17.36 5.57,15.22 14.92,28.82 27.11,39.49 14.83,14.19 36.16,26.39 57.67,44.02 11.43,9.14 21.02,20.46 28.12,33.26 5.73,9.87 8.76,21.1 8.76,32.52 0,4.56 -0.48,9.13 -1.44,13.58 -4.16,15.82 -13.83,28.93 -13.11,43.21 0.57,13.86 8.4,26.41 20.61,32.99 6.05,3.16 11.71,7.05 16.82,11.57 4.69,4.73 8.07,10.64 9.76,17.08 1.2,4.48 1.81,9.11 1.81,13.76 0,7.07 -1.42,14.09 -4.17,20.6 -3.83,8.71 -9.37,16.58 -16.27,23.14 -5.14,4.9 -10.76,9.34 -16.72,13.19 -4.88,3.17 -9.04,5.43 -11.48,6.87 -2.44,1.45 -3.61,2.09 -3.61,1.9l0.01 0.03z"/>
   <g>
    <path class="fil6" d="M1926.45 495.87c8.77,-7.22 14.94,-17.14 17.53,-28.2 2.62,-10.96 4.03,-22.26 4.16,-33.54 0,-3.26 0,-7.41 -3.52,-8.31 -3.52,-0.91 -5.61,2.35 -7.05,5.06 -8.23,15.6 -12.55,33 -12.55,50.66 0,5.89 0.48,11.77 1.43,17.59l1.99 -1.9 -1.98 -1.35 -0.01 -0.01zm0 0l0 0 0 0z"/>
   </g>
   <path class="fil4" d="M1768.71 2581.78l-1.63 -81.35 152.22 -4.07 3.7 118.87 -9.49 0.81c-41.94,3.52 -213.42,14.64 -241.8,6.96 -31.55,-8.58 96.99,-41.21 96.99,-41.21l0.01 -0.01z"/>
   <g>
    <path class="fil10" d="M1867.78 2615.59c1.79,-12.83 8.24,-24.58 18.08,-33 9.3,-7.79 21.09,-12.07 33.22,-12.07 0.67,0 1.36,0.01 2.02,0.04l1.18 42.58 -54.5 2.44 0 0.01z"/>
   </g>
   <g>
    <path class="fil11" d="M1705.98 2599.94c0,0 -45.2,14.28 -39.14,21.61 6.06,7.32 179.89,2.44 256.18,-6.6l0 -3.43 -202.66 7.32c0,0 -5.52,-18.71 -14.38,-18.89l0 -0.01z"/>
   </g>
   <path class="fil0" d="M1925 2611.7l-2.53 0 -7.5 0.72 -27.66 1.9c-23.32,1.54 -55.68,3.16 -91.3,4.16 -35.61,1 -68.07,1.18 -91.39,1l-27.75 0 -7.5 0 -2.62 0 2.62 0 7.51 0 27.75 0c23.32,0 55.68,-0.54 91.3,-1.63 35.61,-1.09 67.98,-2.35 91.3,-3.52l27.66 -1.36 7.5 0 2.62 -1.26 -0.01 -0.02z"/>
   <path class="fil0" d="M1720.17 2621.56c-1.32,-4.54 -3.18,-8.93 -5.51,-13.03 -2.85,-3.81 -6.13,-7.32 -9.76,-10.4 4.72,1.57 8.74,4.78 11.3,9.04 2.64,3.54 4.08,7.86 4.08,12.28 0,0.7 -0.04,1.4 -0.11,2.09l0 0.01 0 0.01z"/>
   <path class="fil0" d="M1764.38 2597.5c0,0 -2.62,-2.26 -4.97,-5.7 -2.35,-3.43 -3.89,-6.42 -3.44,-6.69 0.45,-0.28 2.62,2.26 4.97,5.69 2.35,3.44 3.89,6.06 3.44,6.69l0 0.01z"/>
   <path class="fil0" d="M1776.49 2590.72c0,0 -2.71,-1.17 -5.42,-3.43 -2.71,-2.26 -4.61,-4.52 -4.25,-4.88 0.36,-0.36 2.71,1.17 5.42,3.43 2.71,2.26 4.61,4.43 4.25,4.88z"/>
   <path class="fil0" d="M1783.9 2576.09c-2.09,0.86 -4.34,1.31 -6.6,1.31 -0.42,0 -0.85,-0.02 -1.26,-0.04 -0.44,1.83 -2.07,3.12 -3.95,3.12 -2.25,0 -4.07,-1.82 -4.07,-4.07 0,-2.25 1.82,-4.07 4.07,-4.07 1.88,0 3.52,1.29 3.96,3.12 0.77,-0.08 1.55,-0.13 2.33,-0.13 1.87,0 3.73,0.26 5.53,0.76l0 0 -0.02 0z"/>
   <path class="fil0" d="M1786.34 2565.87c-2.65,1.86 -5.8,2.87 -9.04,2.88 -0.96,0.18 -1.94,0.28 -2.91,0.28 -2.11,0 -4.19,-0.44 -6.13,-1.27 2.97,-0.58 6.01,-0.89 9.04,-0.9 2.98,-0.56 6.02,-0.89 9.04,-0.99l0 0z"/>
   <path class="fil0" d="M1758.86 2584.39c-1.61,0.28 -3.25,0.44 -4.88,0.44 -1.63,0 -3.27,-0.15 -4.88,-0.44 -3.55,-0.33 -7.07,-1.01 -10.48,-1.98 -2.09,-0.53 -4.13,-1.29 -6.06,-2.26 -1.17,-0.65 -2.07,-1.72 -2.53,-2.98 -0.06,-0.29 -0.09,-0.57 -0.09,-0.87 0,-1.2 0.54,-2.34 1.45,-3.11 2.56,-1.31 5.39,-2 8.27,-2 5.46,0 10.62,2.47 14.05,6.71 1.59,1.87 2.76,4.06 3.44,6.42 0,1.63 0,2.62 0,2.62 -1,-3 -2.57,-5.8 -4.61,-8.23 -2.43,-2.6 -5.58,-4.43 -9.04,-5.24 -1.42,-0.42 -2.89,-0.64 -4.37,-0.64 -2.51,0 -4.99,0.63 -7.2,1.82 -1.54,1.17 -0.9,2.98 0.9,3.98 1.76,0.9 3.61,1.63 5.52,2.17 3.31,1.04 6.69,1.83 10.12,2.35 6.6,1.09 10.4,1 10.4,1.27l-0.01 -0.03z"/>
   <path class="fil0" d="M1756.33 2584.94c-0.97,-1.55 -1.49,-3.34 -1.49,-5.17 0,-0.54 0.05,-1.09 0.13,-1.62 0.22,-2.56 1.09,-5.02 2.53,-7.14 1.54,-3.03 4.56,-5.03 7.95,-5.24 1.86,0.33 3.21,1.94 3.21,3.83 0,0.2 -0.02,0.41 -0.04,0.6 -0.14,1.58 -0.67,3.1 -1.54,4.43 -1.22,2.19 -2.72,4.23 -4.43,6.06 -1.47,1.8 -3.37,3.2 -5.51,4.07 -2.15,0.87 1.9,-1.81 4.52,-4.97 1.5,-1.84 2.81,-3.85 3.89,-5.97 1.36,-2.07 2.17,-5.87 0,-6.23 -2.17,-0.36 -4.88,2.35 -6.33,4.33 -1.31,1.93 -2.18,4.13 -2.53,6.42 -0.24,1.86 -0.37,3.75 -0.37,5.63 0,0.32 0,0.66 0.01,0.97l0 0.01 0 -0.02z"/>
   <path class="fil0" d="M1920.75 2570.2c-0.02,-0.01 -0.03,-0.01 -0.04,-0.01 -3.73,0 -7.46,0.22 -11.17,0.63 -8.91,1.35 -17.3,5.11 -24.23,10.85 -6.82,5.86 -11.94,13.5 -14.73,22.06 -2.17,6.6 -2.26,11.03 -2.62,10.94 -0.07,-0.52 -0.11,-1.03 -0.11,-1.54 0,-0.52 0.04,-1.03 0.11,-1.54 0.21,-2.78 0.69,-5.54 1.45,-8.22 5.09,-18.45 21,-31.89 40.04,-33.81 1.39,-0.15 2.8,-0.24 4.2,-0.24 1.41,0 2.81,0.08 4.2,0.24 1.9,0.19 2.89,0.19 2.89,0.64l0 0z"/>
   <path class="fil0" d="M1903.31 2507.3c1.25,10.28 2.03,20.82 2.17,31.19 0.31,5.13 0.47,10.44 0.47,15.63 0,5.19 -0.16,10.5 -0.45,15.65 -1.26,-10.3 -2.04,-20.84 -2.18,-31.2 -0.31,-5.14 -0.47,-10.45 -0.47,-15.63 0,-5.19 0.16,-10.5 0.45,-15.65l0.01 0.02 0 -0.01z"/>
   <path class="fil0" d="M1848.17 2601.31c-7.2,1.85 -14.61,2.8 -22.05,2.8 -0.03,0 -0.07,0 -0.1,0 -2.16,0.15 -4.33,0.24 -6.51,0.24 -5.3,0 -10.61,-0.48 -15.82,-1.42 0,-0.54 10.03,0 22.24,-0.72 12.2,-0.72 22.24,-1.44 22.24,-0.89l0 -0.01z"/>
   <path class="fil0" d="M1878 2600.39c0,0 -0.72,2.17 -1.72,4.43 -1,2.26 -1.45,4.34 -1.9,4.34 -0.45,0 -0.9,-2.35 0,-5.06 0.9,-2.71 3.35,-4.07 3.62,-3.7l0 -0.01z"/>
   <path class="fil0" d="M1888.84 2586.11c0.45,0 -0.54,1.98 -2.07,3.61 -1.54,1.63 -3.07,2.62 -3.44,2.35 -0.36,-0.27 0.54,-1.99 2.08,-3.61 1.54,-1.63 3.07,-2.71 3.43,-2.35l0 0z"/>
   <path class="fil0" d="M1904.84 2579.24c0,0.54 -2.17,0.54 -4.34,1.44 -2.17,0.91 -3.8,2.08 -4.24,1.72 -0.45,-0.36 0.81,-2.44 3.61,-3.44 2.8,-0.99 5.06,-0.19 4.97,0.27l0 0.01z"/>
   <path class="fil0" d="M1916.14 2575.91c0,0.54 -0.63,1.26 -1.9,1.81 -1.26,0.55 -2.44,0.63 -2.62,0 -0.18,-0.63 0.63,-1.26 1.9,-1.81 1.26,-0.54 2.44,-0.45 2.62,0z"/>
   <path class="fil4" d="M1401.08 2146.98l35.35 -73.31 137.57 65.26 -50.53 107.66 -9.04 -3.43c-38.96,-15.91 -196.96,-83.61 -218.74,-103.32 -23.95,-22.05 105.4,7.14 105.4,7.14l-0 -0z"/>
   <g>
    <path class="fil10" d="M1474.12 2221.93c7.54,-10.65 18.75,-18.16 31.46,-21.07 3.84,-0.9 7.79,-1.35 11.74,-1.35 8.83,0 17.53,2.28 25.23,6.6l-18.08 38.5 -50.36 -22.68 0.01 0z"/>
   </g>
   <g>
    <path class="fil11" d="M1336.9 2134.78c0,0 -46.55,-7.59 -44.65,1.54 1.9,9.13 159.09,83.61 231.22,110.28l1.26 -3.16 -184.22 -85.15c0,0 4.25,-19.34 -3.62,-23.5l0.01 -0.01z"/>
   </g>
   <path class="fil0" d="M1526.91 2244.33l-2.44 -0.9 -6.96 -2.8 -25.58 -10.76c-21.42,-9.04 -50.98,-22.42 -83.25,-37.7 -32.27,-15.28 -61.2,-29.65 -81.98,-40.41l-24.5 -12.83 -6.87 -3.08 -2.26 -1.36 2.35 1 6.78 3.35 24.77 12.29c20.97,10.49 49.98,24.68 82.26,39.96 32.27,15.28 61.65,28.56 82.98,38.15l25.31 11.3 6.87 3.07c1.81,0.72 2.62,0.72 2.53,0.72l-0.02 -0z"/>
   <path class="fil0" d="M1339.71 2160.46c0.81,-3.24 1.23,-6.56 1.23,-9.89 0,-6.23 -1.44,-12.38 -4.21,-17.96 3.51,3.63 5.57,8.43 5.78,13.47 0.21,1.16 0.31,2.35 0.31,3.54 0,3.83 -1.08,7.59 -3.11,10.84l-0.01 0.01 0.01 -0.01z"/>
   <path class="fil0" d="M1390.06 2159c-1.13,-2.28 -1.75,-4.78 -1.8,-7.32 -0.31,-1.24 -0.48,-2.52 -0.48,-3.8 0,-1.28 0.17,-2.56 0.48,-3.8 1.19,2.24 1.81,4.74 1.81,7.28 0,0.04 0,0.09 0,0.13 0.54,4.07 0.54,7.51 0,7.51l-0.01 -0z"/>
   <path class="fil0" d="M1403.8 2158.37c-0.54,0 -1.99,-2.26 -3.35,-5.51 -1.36,-3.25 -2.07,-6.06 -1.63,-6.24 0.45,-0.18 1.99,2.26 3.35,5.51 1.36,3.25 2.35,6.06 1.63,6.24z"/>
   <path class="fil0" d="M1417.26 2148.8c-2.71,-0.29 -5.33,-1.15 -7.69,-2.54 -3.98,-1.81 -7.05,-3.7 -6.78,-4.16 2.69,0.24 5.3,1.11 7.6,2.53 3.97,1.82 7.05,3.63 6.87,4.17z"/>
   <path class="fil0" d="M1423.95 2140.74c-0.67,0.08 -1.35,0.12 -2.04,0.12 -2.42,0 -4.81,-0.54 -7,-1.57 -4.8,-1.9 -8.05,-4.7 -7.69,-5.06 2.9,0.83 5.72,1.96 8.41,3.35 2.87,0.77 5.66,1.83 8.31,3.16l0 0.01 0.01 -0.01z"/>
   <path class="fil0" d="M1391.14 2144.91c-3.23,-0.87 -6.3,-2.31 -9.03,-4.26 -2.98,-1.91 -5.81,-4.1 -8.41,-6.51 -1.63,-1.42 -3.09,-3.04 -4.34,-4.79 -0.63,-0.88 -0.96,-1.94 -0.96,-3.02 0,-0.26 0.02,-0.52 0.06,-0.77 0.39,-1.44 1.54,-2.55 2.98,-2.89 0.13,0 0.27,0 0.41,0 8.52,0 15.89,5.96 17.68,14.28 0.27,1.19 0.41,2.4 0.41,3.62 0,1.22 -0.14,2.43 -0.41,3.61 0,1.72 -0.72,2.53 -0.9,2.53 0.27,-1.56 0.41,-3.15 0.41,-4.74 0,-1.59 -0.14,-3.19 -0.41,-4.75 -0.86,-3.29 -2.69,-6.26 -5.24,-8.5 -2.85,-2.72 -6.63,-4.25 -10.57,-4.25 -0.09,0 -0.19,0 -0.27,0 -1.9,0 -2.08,2.26 -1,3.98 1.15,1.62 2.49,3.11 3.98,4.43 2.47,2.43 5.14,4.68 7.96,6.7 4.43,3.35 7.77,5.34 7.68,5.34l-0.03 -0.01z"/>
   <path class="fil0" d="M1388.61 2144.19c-0.02,-0.26 -0.03,-0.52 -0.03,-0.78 0,-2.09 0.68,-4.14 1.93,-5.83 1.33,-2.2 3.2,-4.04 5.43,-5.33 1.67,-1.19 3.67,-1.83 5.72,-1.83 1.29,0 2.58,0.26 3.77,0.75 0.98,0.74 1.56,1.89 1.56,3.12 0,0.83 -0.26,1.64 -0.76,2.3 -0.87,1.31 -2.01,2.42 -3.34,3.26 -2.1,1.36 -4.35,2.48 -6.7,3.34 -1.88,0.79 -3.9,1.2 -5.94,1.2 -0.28,0 -0.56,-0.01 -0.83,-0.02 -0.28,-0.02 2.53,-0.72 6.24,-2.35 2.19,-0.99 4.29,-2.2 6.24,-3.61 2.07,-1.27 4.52,-4.25 2.53,-5.7 -0.88,-0.28 -1.81,-0.42 -2.73,-0.42 -1.72,0 -3.41,0.5 -4.86,1.42 -2.07,1.13 -3.86,2.7 -5.24,4.61 -1.13,1.87 -2.14,3.85 -2.98,5.87l0 0.01 -0.01 -0z"/>
   <path class="fil0" d="M1542 2205.39c0,0 -3.8,-2.26 -10.39,-4.43 -5.02,-1.71 -10.31,-2.59 -15.62,-2.59 -3.65,0 -7.3,0.41 -10.86,1.23 -8.75,2.13 -16.78,6.64 -23.14,13.02 -4.88,4.88 -6.96,9.04 -7.23,8.59 0.26,-1 0.69,-1.95 1.26,-2.8 1.43,-2.41 3.13,-4.65 5.06,-6.69 8.76,-9.65 21.19,-15.17 34.22,-15.17 5.73,0 11.43,1.07 16.76,3.15 2.61,1.02 5.13,2.3 7.5,3.8 0.89,0.52 1.72,1.16 2.44,1.9l0 0.01 -0 -0.02z"/>
   <path class="fil0" d="M1554.84 2141.37c-3.52,9.78 -7.67,19.46 -12.2,28.82 -4,9.61 -8.72,19.04 -13.93,28.04 3.54,-9.79 7.69,-19.47 12.23,-28.83 4.04,-9.57 8.76,-19 13.92,-28.02l-0.02 0 0 -0.01z"/>
   <path class="fil0" d="M1463.19 2200.31c-7.3,-1.61 -14.41,-4.17 -21.06,-7.6 -6.89,-2.83 -13.43,-6.58 -19.34,-11.11 0,-0.45 9.04,4.34 20.16,9.49 11.12,5.15 20.42,8.68 20.24,9.22l-0 0z"/>
   <path class="fil0" d="M1490.12 2212.98c0,0.54 -1.63,1.63 -3.52,3.26 -1.9,1.63 -3.26,3.17 -3.71,2.9 -0.45,-0.27 0,-2.44 2.53,-4.34 2.53,-1.9 4.61,-2.27 4.7,-1.81l-0 -0.01z"/>
   <path class="fil0" d="M1506.3 2205.2c0,0.45 -1.36,1.45 -3.52,2.26 -2.17,0.81 -3.89,1 -4.07,0.54 -0.18,-0.46 1.36,-1.54 3.44,-2.26 2.07,-0.72 3.98,-1.08 4.16,-0.54l-0.01 0z"/>
   <path class="fil0" d="M1523.56 2206.28c0,0 -2.08,-0.45 -4.43,-0.72 -2.35,-0.27 -4.34,0 -4.61,0 -0.27,0 1.9,-1.81 4.79,-1.44 2.89,0.36 4.61,1.81 4.25,2.17l0 -0.01z"/>
   <path class="fil0" d="M1535.23 2208.19c0,0.54 -1.17,0.81 -2.53,0.72 -1.36,-0.09 -2.35,-0.54 -2.35,-1.09 0,-0.54 1.18,-0.81 2.53,-0.72 1.36,0.09 2.44,1.08 2.35,1.08l0 0.01z"/>
   <path class="fil12" d="M2404.99 1083.16l-32.36 -162.7c-23.87,-132.88 -210.17,-142.1 -210.17,-142.1l-146.17 -2.35c0,0 -108.47,-14.55 -175.27,60.84 -69.24,78.1 -154.3,170.3 -154.3,170.3l64.99 163.34 153.67 -126.55c-12.83,22.51 -19.94,47.92 -20.61,73.83 0,43.3 45.2,63.28 45.2,63.28l13.83 131.7 -45.92 212.7 477.37 -19.16c-7.95,-71.28 -32.07,-139.93 -70.34,-200.57l9.04 -222.55 91.04 0 0 -0z"/>
   <path class="fil0" d="M2200.07 901.1c1.15,3.37 1.98,6.86 2.44,10.39 1.54,7.69 3.44,17.26 5.61,28.48 4.88,25.13 11.2,57.85 18.07,94.01 6.87,36.16 13.02,70.15 16.9,94.37 1.9,12.11 3.26,21.97 4.07,28.75 0.51,2.8 0.78,5.66 0.78,8.51 0,0.72 -0.02,1.45 -0.05,2.16 -1.26,-3.34 -2.12,-6.85 -2.54,-10.4 -1.44,-7.68 -3.34,-17.17 -5.6,-28.47 -4.8,-25.04 -11.12,-57.76 -18.08,-94.01 -6.96,-36.24 -12.93,-70.05 -16.81,-94.28 -1.9,-12.11 -3.35,-21.97 -4.16,-28.83 -0.48,-2.59 -0.72,-5.23 -0.72,-7.87 0,-0.93 0.03,-1.87 0.09,-2.8l0 0.01 -0 -0.02z"/>
   <path class="fil0" d="M2407.16 1074.57c-22.78,1.86 -45.89,2.94 -68.81,2.94 -6.39,0 -13.08,-0.1 -19.38,-0.2 -8.15,0.17 -16.87,0.37 -25.19,0.37 -20.96,0 -42.12,-0.88 -62.98,-2.44 22.95,-1.93 46.15,-2.87 69.26,-2.87 6.22,0 12.74,0.11 18.86,0.21 8.13,-0.16 16.81,-0.37 25.08,-0.37 20.98,0 42.26,0.83 63.14,2.38l0.02 -0.02 0 0z"/>
   <path class="fil8" d="M2425.24 1221.73c-9.49,-78.01 -22.06,-144.63 -22.06,-144.63l-168.59 0c0,0 20.97,98.89 16.28,121.85 -4.07,19.97 -331.65,33.17 -416.98,34.53 -5.06,-3.8 -12.48,2.62 -19.07,-3.07 -5.8,-5.17 -10.7,-11.29 -14.46,-18.08 -5.1,-8.24 -9.03,-17.17 -11.66,-26.48 -0.75,-4.34 -4.51,-7.51 -8.91,-7.51 -2.93,0 -5.67,1.42 -7.36,3.8 -3.35,7.32 0.45,31.64 16.72,55.14 16.27,23.5 -26.31,11.3 -41.94,7.14 -15.64,-4.16 -64.27,-14.74 -69.33,-10.85 -7.41,5.7 -2.71,14.91 12.93,18.71 15.64,3.8 61.74,18.07 59.21,27.12 -2.53,9.04 -81.35,-14.1 -81.35,-14.1 0,0 -16.19,-7.59 -19.35,1.9 -5.87,17.17 79.82,34.62 87.95,36.16 5.69,1 3.26,10.13 -2.71,9.04 -5.97,-1.08 -78.37,-24.13 -84.43,-6.69 -4.7,13.38 70.33,15 82.71,28.2 12.38,13.2 -56.76,-7.14 -60.65,5.78 -1.54,4.88 27.11,7.14 68.61,12.93 33.37,3.19 67.38,4.86 101.01,4.86 8.86,0 18.22,-0.26 26.95,-0.39 96,5.24 435.06,12.29 507.47,7.14 84.28,-6.28 52.64,-115.74 49.03,-142.5l-0.02 -0z"/>
   <path class="fil0" d="M1888.48 1087.77c1.16,-7.48 3.09,-14.85 5.69,-21.96 1.99,-6.69 4.43,-14.64 7.5,-23.41 1.54,-4.43 3.26,-9.04 5.24,-13.74 1,-2.54 2.35,-4.7 3.07,-6.78 0.56,-1.97 0.84,-4 0.84,-6.05 0,-0.33 -0.01,-0.68 -0.02,-1.01 -0.35,-5.01 -1.13,-10.02 -2.26,-14.91 -0.9,-4.88 -1.81,-9.67 -2.62,-14.28 -1.54,-9.04 -2.98,-16.81 -4.25,-24.23 -1.67,-7.37 -2.59,-14.94 -2.71,-22.5 2.75,7.05 4.77,14.4 5.98,21.87 1.63,7.41 3.35,15.46 5.24,24.04l2.89 14.19c1.21,5.16 2.04,10.45 2.43,15.73 0.02,0.39 0.03,0.78 0.03,1.18 0,2.51 -0.38,5.01 -1.11,7.41 -1,2.89 -2.44,5.06 -3.26,7.14 -1.99,4.61 -3.8,9.04 -5.43,13.38 -2.98,8.23 -5.78,15.91 -8.41,22.96 -2.17,7.29 -5.16,14.34 -8.85,20.98l-0.01 0 0.02 -0.01z"/>
   <g>
    <path class="fil6" d="M2085.45 471.2c13.1,16.72 27.11,36.16 24.31,57.13 -2.26,18.08 -17,34.89 -14.55,53.33 2.89,21.24 27.57,35.07 28.74,56.5 1.09,18.07 -14.19,31.46 -25.04,45.2 -13.28,17.13 -20.5,38.24 -20.5,59.93 0,4.13 0.28,8.28 0.79,12.38 3.55,25.75 18.81,48.45 41.3,61.47 11.01,6.07 23.39,9.27 35.97,9.27 13.08,0 25.93,-3.46 37.25,-10 19.6,-13.7 33.91,-33.77 40.5,-56.76 10.03,-29.11 12.83,-63.28 -4.52,-88.85 -6.96,-10.31 -17.26,-19.26 -19.52,-31.46 -2.89,-15.64 8.13,-30.28 9.94,-46.01 2.35,-21.06 -12.2,-40.32 -28.39,-54.24 -16.18,-13.92 -35.07,-24.86 -47,-42.39l-59.29 -25.49 0.01 -0.01zm0 0l0 0 0 0z"/>
   </g>
   <g>
    <path class="fil13" d="M2205.58 945.12c5.96,90.39 9.49,174.01 11.2,264.67 12.09,-0.45 23.89,-4.15 34.08,-10.67 4.7,-38.68 -24.5,-156.46 -45.28,-254z"/>
   </g>
   <path class="fil14" d="M1985.29 903.55c-0.43,-2.22 -0.64,-4.5 -0.64,-6.77 0,-4.72 0.93,-9.4 2.72,-13.76 1.2,-6.93 4.34,-13.39 9.04,-18.62 -2.28,13.38 -6.03,26.56 -11.12,39.15l0 0z"/>
   <path class="fil14" d="M1889.21 903.27c-0.72,1 -7.14,-2.08 -13.46,-8.13 -6.33,-6.06 -9.85,-12.2 -9.04,-12.93 0.81,-0.72 5.97,3.89 12.02,9.58 6.06,5.69 11.21,10.39 10.48,11.48z"/>
   <path class="fil14" d="M1797.55 978.21c0,0 -0.81,-0.81 -1.26,-2.44l2.07 0c0.7,3.67 1.06,7.42 1.06,11.16 0,3.74 -0.36,7.49 -1.06,11.16 -0.66,8.49 -3.99,16.57 -9.49,23.06 1.12,-8 2.75,-15.96 4.8,-23.78 1.72,-9.04 1.98,-17.54 2.62,-21.52l1.98 0.01c-0.09,1.35 -0.36,2.35 -0.72,2.35l0 -0z"/>
   <path class="fil14" d="M1793.48 1072.04c-6.89,-0.22 -13.67,-2 -19.8,-5.16 -10.49,-4.07 -18.08,-8.41 -18.08,-9.58 6.9,0.18 13.69,1.95 19.8,5.15 10.48,4.07 18.62,8.41 18.07,9.58l0.01 0.01z"/>
   <path class="fil14" d="M1870.86 1020.06c-1.27,0 -1,-8.13 1.9,-17.44 2.89,-9.31 7.23,-16 8.31,-15.46 1.09,0.54 -1.08,7.96 -3.8,16.9 -2.71,8.95 -5.15,16.28 -6.42,16l0.01 0z"/>
   <path class="fil14" d="M1952.48 814.33c0,1.26 -6.78,2.71 -15.19,3.07 -8.41,0.36 -15.46,0 -15.55,-1.63 -0.09,-1.63 6.78,-2.62 15.28,-3.07 8.5,-0.45 15.37,0.36 15.46,1.63z"/>
   <path class="fil14" d="M1969.12 990.86c-0.72,0.9 -8.13,-4.52 -13.02,-14.46 -4.88,-9.94 -4.8,-19.07 -3.52,-19.16 1.27,-0.09 3.26,8.04 7.77,17.08 4.52,9.04 9.76,15.55 8.77,16.54l-0 0z"/>
   <path class="fil14" d="M2129.75 953.08c0.9,0.9 -4.89,8.04 -13.47,15.46 -8.59,7.41 -16.54,11.93 -17.36,10.94 -0.81,-0.99 5.87,-7.23 14.28,-14.56 8.41,-7.32 15.55,-13.2 16.54,-11.84l0.01 -0z"/>
   <path class="fil14" d="M2050.29 928.04c0.81,1.08 -4.25,6.15 -11.21,11.3 -6.96,5.15 -13.2,8.5 -14.01,7.41 -0.81,-1.09 4.25,-6.06 11.21,-11.2 6.96,-5.15 13.29,-8.5 14.01,-7.5l0 -0.01z"/>
   <path class="fil14" d="M2089.25 863.14c-7.37,-1.57 -14.11,-5.36 -19.26,-10.85 -9.04,-7.95 -14.46,-16.63 -13.47,-17.35 1,-0.72 7.69,6.15 16.54,13.74 8.85,7.59 16.82,13.29 16.19,14.47l0 -0.01z"/>
   <path class="fil14" d="M2180.63 837.83c0.81,1 -4.33,6.23 -11.48,11.66 -7.14,5.43 -13.56,9.04 -14.28,7.87 -0.72,-1.18 4.34,-6.24 11.48,-11.67 7.14,-5.43 13.56,-8.94 14.28,-7.86l0 -0z"/>
   <path class="fil14" d="M2257.02 873.99c0,-0.34 -0.01,-0.7 -0.01,-1.05 0,-6.18 0.99,-12.33 2.9,-18.2 2.07,-10.39 3.34,-18.98 4.7,-18.89 1,3.2 1.52,6.54 1.52,9.89 0,3.36 -0.52,6.7 -1.52,9.9 -2.08,10.85 -6.42,18.9 -7.59,18.35z"/>
   <path class="fil14" d="M2270.48 960.76c-0.9,1 -9.04,-5.15 -18.07,-13.56 -9.04,-8.41 -16.09,-16.19 -15.19,-17.09 0.91,-0.9 9.04,5.15 18.08,13.56 9.04,8.41 16.27,16.36 15.19,17.08l-0.01 0.01z"/>
   <path class="fil14" d="M2332.13 924.6c0.32,-6.35 2.12,-12.54 5.24,-18.07 4.16,-9.58 8.41,-17 9.58,-16.45 1.18,0.54 -1.08,9.04 -5.24,18.08 -4.16,9.04 -8.31,16.45 -9.58,16.45l0 -0.01z"/>
   <path class="fil14" d="M2335.39 1029.01c1.51,-7.54 4.59,-14.69 9.03,-20.98 5.97,-11.03 11.75,-19.35 12.93,-18.71 -1.59,7.52 -4.67,14.66 -9.04,20.98 -5.96,10.93 -11.75,19.34 -12.92,18.71z"/>
   <path class="fil14" d="M2274.46 1045.01c-1,0.81 -7.23,-5.69 -13.83,-14.46 -6.6,-8.77 -11.21,-16.63 -10.13,-17.45 1.08,-0.81 7.23,5.79 13.83,14.56 6.6,8.77 11.21,16.63 10.13,17.35z"/>
   <path class="fil14" d="M2159.48 1089.75c2.28,-9.45 6.61,-18.32 12.64,-25.94 4.69,-8.48 11.22,-15.85 19.09,-21.51 -4.17,8.56 -9.27,16.68 -15.19,24.13 -4.67,8.31 -10.24,16.16 -16.54,23.32l0 0 -0 0z"/>
   <path class="fil14" d="M2076.86 1081.44c-5.52,-6.09 -9.86,-13.18 -12.75,-20.87 -4.28,-7.04 -7.17,-14.85 -8.5,-22.96 9.85,13.08 17.09,28 21.25,43.84l0 0 0 -0.01z"/>
   <path class="fil14" d="M1973.27 1057.21c0.9,1 -7.59,9.76 -18.89,19.7 -6.38,6.57 -13.85,12.02 -22.06,16.09 5.17,-7.55 11.56,-14.19 18.89,-19.63 6.38,-6.58 13.85,-12.07 22.05,-16.18l0.01 0.01 -0 0.01z"/>
   <path class="fil14" d="M2012.32 1170.3c-6.62,-5.15 -12.7,-11.03 -18.08,-17.46 -9.67,-9.76 -18.08,-17.35 -17.26,-18.07 8.04,3.18 15.15,8.39 20.6,15.09 6.53,5.47 11.61,12.51 14.74,20.43l0 0 0 0.01z"/>
   <path class="fil14" d="M2085.18 1173.64c2.56,-16.14 11.01,-30.8 23.69,-41.13 -3.22,7.33 -7.22,14.36 -11.85,20.88 -3.24,7.12 -7.22,13.92 -11.84,20.24l0.01 0 -0.01 0.01z"/>
   <path class="fil14" d="M2187.32 1185.21c-8.29,-3.93 -15.89,-9.22 -22.42,-15.64 -7.48,-5.28 -14.03,-11.8 -19.34,-19.25 8.27,3.88 15.83,9.2 22.32,15.64 11.67,9.67 20.35,18.26 19.44,19.25z"/>
   <path class="fil14" d="M2178.37 916.38c-0.54,1.18 -9.67,-2.26 -19.16,-9.04 -9.49,-6.78 -15.46,-14.64 -14.55,-15.46 0.91,-0.82 8.22,4.97 17.35,11.66 9.13,6.69 16.9,12.02 16.36,12.83l0 0.01z"/>
   <path class="fil14" d="M2030.67 1379.65c0,1.26 -6.87,5.24 -15,11.2 -8.13,5.96 -14.1,11.84 -15.19,10.94 -1.08,-0.91 3.71,-8.32 12.39,-14.74 8.68,-6.42 17.35,-8.59 17.81,-7.41l-0.01 0.01z"/>
   <path class="fil14" d="M2139.95 1424.39c-4.53,-5.74 -7.84,-12.37 -9.67,-19.44 -3.16,-6.55 -4.95,-13.7 -5.24,-20.97 7.87,12.2 12.99,26.02 14.92,40.41l0 0 -0.01 0z"/>
   <path class="fil14" d="M2250.32 1385.61c0.9,0.81 -4.7,8.23 -12.56,16.45 -7.87,8.22 -15.1,14.19 -16,13.29 -0.9,-0.9 4.7,-8.23 12.56,-16.54 7.87,-8.31 15.01,-14.37 16,-13.2z"/>
   <path class="fil14" d="M2331.86 1444.72c-0.9,1.08 -8.23,-4.7 -19.07,-6.87 -10.84,-2.17 -19.8,0 -20.24,-1.17 4.04,-2.96 8.93,-4.56 13.95,-4.56 2.44,0 4.87,0.38 7.19,1.12 12.12,2.53 19.17,10.76 18.18,11.48l-0.01 0z"/>
   <path class="fil6" d="M2376.79 1485.04c0,0 -624.26,-130.71 -684.73,-102.14 -60.48,28.56 -339.16,717.54 -339.16,717.54l224.45 96.63 241.53 -585.48c0,0 437.05,159.63 513.34,143.73 76.29,-15.91 44.57,-270.28 44.57,-270.28l0 0z"/>
   <path class="fil6" d="M2097.75 1521.74c-9.04,3.17 -370.61,151.59 -396.01,199.32 -25.4,47.73 37.06,840.02 37.06,840.02l205.37 0 -12.74 -704.16 400.8 -101.6 -234.48 -233.57 0 -0.01z"/>
   <path class="fil0" d="M2334.84 1756.94c-2.01,-0.02 -4.02,-0.27 -5.97,-0.73l-16.81 -2.98c-14.56,-2.71 -35.62,-6.87 -61.47,-12.39 -51.88,-10.94 -123.2,-27.11 -201.03,-49.72 -38.78,-11.3 -75.57,-23.05 -108.47,-34.44 -32.9,-11.39 -62.65,-22.69 -87.05,-33.17 -12.29,-4.97 -23.23,-9.85 -32.81,-14.19 -9.58,-4.33 -18.08,-8.13 -24.41,-11.57l-15.28 -7.59c-1.81,-0.83 -3.54,-1.83 -5.15,-2.98 1.92,0.45 3.78,1.15 5.51,2.08l15.64 6.87c6.69,3.16 15,6.69 24.77,10.76 9.76,4.06 20.61,9.04 32.99,13.56 24.5,10.03 54.24,20.7 87.14,32.18 32.91,11.48 69.87,22.69 108.47,33.99 77.65,22.24 148.79,39.23 200.4,50.98l61.11 13.83 16.63 3.89c1.97,0.33 3.92,0.87 5.78,1.62l0 0.01 0 -0.01z"/>
   <path class="fil0" d="M1702.09 1903.02c-0.95,-3.88 -1.56,-7.86 -1.8,-11.85 -1,-8.59 -2.07,-19.52 -3.43,-32.45 -1.36,-12.93 -2.89,-30.37 -4.52,-48.27 -1.35,-9.88 -2.04,-19.89 -2.04,-29.87 0,-9.98 0.7,-19.99 2.04,-29.87 4.02,-20.04 14.59,-38.2 30.01,-51.61 12.17,-10.89 26.07,-19.83 41.04,-26.39 9.91,-4.51 20.11,-8.59 30.46,-12.03 3.72,-1.53 7.61,-2.69 11.57,-3.44 0,0.9 -15.91,6.51 -40.59,18.08 -14.4,6.9 -27.77,15.86 -39.59,26.57 -14.49,12.97 -24.42,30.3 -28.29,49.36 -1.24,9.69 -1.91,19.48 -1.91,29.24 0,9.77 0.66,19.56 1.91,29.24 1.26,18.07 2.44,34.26 3.43,48.36 1,14.1 1.45,23.96 1.99,32.54 0.17,1.69 0.25,3.39 0.25,5.08 0,2.44 -0.18,4.89 -0.52,7.3l0 0.01 -0.01 0.01z"/>
   <path class="fil0" d="M1881.97 1834.96c8.87,1.5 17.42,4.57 25.22,9.04 8.46,2.85 16.38,7.2 23.31,12.83 -17.28,-4.24 -33.76,-11.51 -48.54,-21.41l0 -0.45 0.01 -0.01z"/>
   <path class="fil0" d="M1900.05 1813.35c1.26,-0.54 6.96,10.84 16.36,23.14 6.41,7.01 12.5,14.41 18.09,22.06 -16.98,-9.9 -29.3,-26.2 -34.18,-45.21l-0.27 0.01 0 -0z"/>
   <path class="fil0" d="M1978.88 1845.8c0,0 -0.63,1.72 -3.16,3.26 -3.46,1.83 -7.33,2.8 -11.24,2.8 -0.23,0 -0.47,0 -0.69,0 -1.58,-0.06 -3.24,-0.09 -4.84,-0.09 -4.05,0 -8.12,0.19 -12.16,0.54 -5.89,0.83 -10.27,5.87 -10.27,11.82 0,0.43 0.02,0.86 0.07,1.29 0.12,3.84 0.2,7.79 0.2,11.66 0,14.39 -0.97,28.91 -2.82,43.14 -1.62,-13.15 -2.45,-26.48 -2.45,-39.72 0,-5.1 0.12,-10.28 0.35,-15.34 0.01,-0.16 0.01,-0.31 0.01,-0.46 0,-4.06 1.37,-8.02 3.89,-11.2 2.6,-3.07 6.3,-5.02 10.3,-5.43 2.99,-0.26 6.03,-0.41 9.04,-0.41 3.01,0 6.05,0.15 9.04,0.42 1.11,0.13 2.23,0.2 3.35,0.2 3.93,0 7.81,-0.84 11.39,-2.46l0 0.01 -0.01 -0.04z"/>
   <polygon class="fil13" points="1929.61,1378.74 2355.18,1412.91 2336.92,1365.35 1933.77,1359.48 "/>
   <polygon class="fil6" points="3081.22,1285.36 572.91,1285.36 572.91,1352.35 707.06,1352.35 637.89,2624.54 676.04,2626.61 745.37,1352.35 2944.46,1352.35 3003.48,2625.52 3041.72,2625.52 2982.69,1352.35 3081.22,1352.35 "/>
   <polygon class="fil0" points="1304.45,889.81 1443.57,1296.21 2073.43,1296.21 2068.82,1275.33 1814.09,1267.47 1696.76,889.53 "/>
   <path class="fil7" d="M1583.59 1080.71c4.16,16.63 -2.98,32.9 -15.91,36.16 -12.93,3.26 -27.12,-7.23 -31,-23.87 -3.89,-16.63 2.98,-33 15.91,-36.16 12.93,-3.16 26.85,7.24 31,23.87z"/>
  </g>
 </g>
</svg>
