<?xml version="1.0" encoding="UTF-8"?>
<!DOCTYPE svg PUBLIC "-//W3C//DTD SVG 1.1//EN" "http://www.w3.org/Graphics/SVG/1.1/DTD/svg11.dtd">
<!-- Creator: CorelDRAW 2018 (64 Bit Versão de avaliação) -->
<svg xmlns="http://www.w3.org/2000/svg" xml:space="preserve" width="1.77165in" height="1.77165in" version="1.1" style="shape-rendering:geometricPrecision; text-rendering:geometricPrecision; image-rendering:optimizeQuality; fill-rule:evenodd; clip-rule:evenodd"
viewBox="0 0 1771.65 1771.65"
 xmlns:xlink="http://www.w3.org/1999/xlink">
 <defs>
  <style type="text/css">
   <![CDATA[
    .fil0 {fill:white}
   ]]>
  </style>
 </defs>
 <g id="Camada_x0020_1">
  <metadata id="CorelCorpID_0Corel-Layer"/>
  <path class="fil0" d="M1082.49 1224.16l0 0zm-393.33 0l0 0zm-140 -580l673.33 0 -186.76 429.91c-6.99,15.96 -13.15,32.13 -21.02,48.97l-105.64 241.02c-4.78,10.91 -18.95,38.6 -19.91,50.09l-6.67 0c-1.08,-12.99 -51.31,-120.5 -60.48,-142.85 -43.93,-107.19 -100.26,-227.63 -147.14,-336.19l-115.66 -264.34c-3.87,-8.51 -6.31,-18.26 -10.05,-26.62zm533.33 580l30.46 -72.87c4.69,-11.43 9.63,-21.5 15.28,-34.72l79 -181c10.25,-24.54 21.46,-48.33 31.87,-71.46 10.93,-24.29 20,-46.95 31.2,-72.14 9.14,-20.57 61.21,-136 62.19,-147.8l230 0c-9.25,13.81 -16.9,22.19 -27.72,35.61l-452.28 544.38zm-393.33 0c-10.39,-6.96 -271.78,-326.4 -299.53,-360.47 -28.5,-35 -161.03,-190.49 -180.47,-219.52l230 0c1.11,13.36 23.8,59.47 29.91,73.43 59.63,136.19 132.75,297.35 188.69,431.31 5.81,13.93 9.61,24.11 15.86,37.47 5.55,11.86 12.58,25.06 15.55,37.79zm663.33 -893.33c12.83,8.59 14.59,14.05 24.31,25.69l175.69 184.31 -200 0 0 -210zm-466.67 -56.67c16.43,11 102.77,95.31 122.43,114.23 8.22,7.91 12.02,9.07 20.11,16.56l140.79 135.87 -566.66 0c15.58,-23.27 37.34,-36.05 50.9,-49.1l106.57 -100.09c6.3,-5.54 10.63,-10.57 16.69,-16.64 13.52,-13.54 21.33,-21.71 36.33,-33.67 11.91,-9.5 23.96,-23.32 35.29,-34.71 7.87,-7.91 9.96,-8.8 18.04,-15.3 8.07,-6.49 10.95,-11.43 19.51,-17.15zm-466.67 56.67l0 210 -200 0c10.18,-15.2 34.91,-36.29 49.23,-50.77l150.77 -159.23zm596.67 -76.67l233.33 0 0 216.67c-13.4,-3.58 -19.97,-14.96 -29.17,-24.17l-204.17 -192.5zm-493.33 216.67l0 -216.67 233.33 0c-9.51,14.2 -54.63,51.61 -70.81,65.86 -27.39,24.12 -75.32,76.72 -102.52,97.47 -11.1,8.47 -18.82,17.15 -29.17,27.5 -9.57,9.58 -16.93,22.12 -30.83,25.83zm-490 120l52.3 64.36c9.33,11.09 16.06,20.18 25.39,31.27l320.02 386.65c9.83,12.2 17.31,20.59 27.04,32.96 8.62,10.97 17,20.37 25.99,30.68 9.72,11.15 17.5,21.26 26.98,33.03 17.96,22.3 34.37,42.3 53.02,63.64l266.78 323.22c9.71,10.9 18.06,20.96 27.26,32.74 9.31,11.93 17.09,23.78 28.55,31.45 16.22,-10.86 185.74,-223.86 214.19,-255.81 8.9,-10 18.11,-20.94 25.83,-30.83 56.4,-72.39 128.15,-153.39 187.11,-226.22 70.49,-87.07 141.91,-170.55 212.4,-257.6l80 -96.67c9.19,-11.36 18.27,-21.55 27.11,-32.89 22.15,-28.42 91.39,-107.13 106.69,-129.98l-102.52 -110.81c-16.65,-18.91 -37.13,-34.33 -53.16,-53.51l-156.81 -166.52c-9.45,-9.45 -17.76,-16.94 -26.71,-26.62l-64.53 -68.81c-4.84,-6.24 -6.27,-13.74 -16.26,-13.74l-866.66 0c-9.64,0 -9.19,7.69 -27.5,25.84l-130 136.66c-9.71,9.7 -16.96,16.91 -26.72,26.62l-78.31 85.02c-16.65,18.91 -37.12,34.32 -53.16,53.51l-104.31 112.35z"/>
 </g>
</svg>
