<?xml version="1.0" encoding="UTF-8"?>
<!DOCTYPE svg PUBLIC "-//W3C//DTD SVG 1.1//EN" "http://www.w3.org/Graphics/SVG/1.1/DTD/svg11.dtd">
<!-- Creator: CorelDRAW 2018 (64 Bit Versão de avaliação) -->
<svg xmlns="http://www.w3.org/2000/svg" xml:space="preserve" width="1.77165in" height="1.77165in" version="1.1" style="shape-rendering:geometricPrecision; text-rendering:geometricPrecision; image-rendering:optimizeQuality; fill-rule:evenodd; clip-rule:evenodd"
viewBox="0 0 1771.65 1771.65"
 xmlns:xlink="http://www.w3.org/1999/xlink">
 <defs>
  <style type="text/css">
   <![CDATA[
    .fil0 {fill:white}
   ]]>
  </style>
 </defs>
 <g id="Camada_x0020_1">
  <metadata id="CorelCorpID_0Corel-Layer"/>
  <path class="fil0" d="M1379.16 1362.63c-77.96,0 -133.13,-97.78 -67.99,-168l3.24 -3.42c61.19,-60.79 168.09,-19.52 168.09,64.75 0,34.31 -11.16,56.5 -29.06,74.27 -17,16.89 -41.96,32.39 -74.27,32.39zm360 -464.66l0 39.74c-2.23,26.03 -7.2,58.75 -10.25,98.01 -3.23,41.54 -9.41,88.97 -12.79,130.54 -2.45,30.15 -3.44,36.26 -14.64,58.69 -28.09,56.28 -72.23,74.35 -142.32,74.35 -3,36.09 -38.01,83.67 -61.85,101.48 -77.75,58.1 -158.76,60.73 -236.8,0.5 -29.38,-22.68 -49.64,-66.02 -58.02,-101.98 -18.25,0 -33.38,-3.5 -48.08,-8.58 -18.68,-6.46 -21.92,-12.49 -35.25,-21.42 -31.25,16.54 -43.8,30.31 -93.25,30.08l-370.08 -0.08c-19.11,82.02 -91.15,141.27 -180.49,146.21 -81.13,4.48 -174.55,-73.19 -176.17,-146.21l-26.67 0c-58.3,0 -106.11,-38.26 -115.37,-88.01 -8.09,-43.48 7.95,-132.93 12.03,-181.98 -24.66,0 -65.76,9.44 -74.87,-31.93 -6.32,-28.69 16.57,-48.73 51.66,-51.28 64.4,-4.68 338.79,-0.13 426.54,-0.13 53.18,0 153.33,20.19 153.33,-60 0,-63.13 -64.9,-56.67 -93.33,-56.67 -50,0 -100,0 -150,0l-226.77 0.11c-23.73,-1.04 -43.23,-15.17 -43.23,-30.11 0,-66.44 43.06,-53.33 120,-53.33l313.33 0c28.47,0 49.51,3.77 68.2,-8.47 49.06,-32.14 32.74,-107.24 -24.67,-108.39 -152.76,-3.07 -340.34,0.2 -496.86,0.2 -53.18,0 -160,16.25 -160,-36.67l0 -0.87c0.05,-18.17 1.73,-29.24 21.98,-40.49 13.87,-7.7 25.22,-5.41 44.68,-5.32l516.67 0.01c51.55,0 146.67,18.04 146.67,-60 0,-66.99 -97.24,-50 -140,-50 -96.1,0 -298.85,4.39 -380.47,0.38 -12.76,-0.63 -14.44,2.11 -15.35,-9.44 -0.01,-0.11 2.06,-15.59 2.71,-20.59 1.55,-12.05 3.45,-31.09 5.37,-41.42 5.25,-28.19 22.68,-38.93 54.41,-38.93l823.33 0c37.63,0 67.79,13.24 87.63,32.38 59.18,57.09 25.71,120.04 25.71,174.29l263.33 0c23.31,0 33.3,8.84 42.38,24.28 9.16,15.59 14.83,26.81 23.17,43.49l134.44 262.22c33.18,0 46.35,11.89 50,35.34zm-1263.33 464.66c-27.78,0 -48.57,-11.89 -65.4,-24.6 -52.79,-39.82 -47.43,-175.4 78.74,-175.4 79.9,0 119.92,113.7 57.58,170.91 -14.88,13.66 -43.72,29.09 -70.91,29.09zm956.67 -416.67l220 0c0,30.18 -5.44,55.48 -6.65,83.36 -1.19,27.72 -4.69,54.07 -6.94,83.06 -6.9,88.82 -6.25,103.59 -79.75,103.59 -7.67,-92.24 -159.08,-196.98 -288.65,-95.31 -22.87,17.94 -60.65,64.17 -61.35,95.31 -27.47,0 -48.37,-8.22 -42.51,-49l22.26 -234.58c2.04,-26.28 5.69,-52.66 6.86,-76.48 1.41,-28.43 5.57,-53.57 6.7,-79.96 2.26,-52.62 13.36,-106.59 13.36,-159.98l116.67 0 -20.25 213.37c-1.37,63.5 51.02,116.63 120.25,116.63z"/>
 </g>
</svg>
