<?xml version="1.0" encoding="UTF-8"?>
<!DOCTYPE svg PUBLIC "-//W3C//DTD SVG 1.1//EN" "http://www.w3.org/Graphics/SVG/1.1/DTD/svg11.dtd">
<!-- Creator: CorelDRAW 2018 (64 Bit Versão de avaliação) -->
<svg xmlns="http://www.w3.org/2000/svg" xml:space="preserve" width="1.77165in" height="1.5748in" version="1.1" style="shape-rendering:geometricPrecision; text-rendering:geometricPrecision; image-rendering:optimizeQuality; fill-rule:evenodd; clip-rule:evenodd"
viewBox="0 0 1771.65 1574.8"
 xmlns:xlink="http://www.w3.org/1999/xlink">
 <defs>
  <style type="text/css">
   <![CDATA[
    .fil0 {fill:#FFEE5C}
   ]]>
  </style>
 </defs>
 <g id="Camada_x0020_1">
  <metadata id="CorelCorpID_0Corel-Layer"/>
  <path class="fil0" d="M189.91 1099.66l143.94 0 0 383.84 -143.94 0 0 -383.84zm191.92 0l95.96 0 0 335.85 -95.96 0 0 -335.85zm599.75 95.96l-239.9 0 0 47.98 248.9 0c33.87,0 46.22,-18.29 58.46,-22.51 22.82,-7.86 135.29,5.76 163.59,-4.35l183.13 -65.76c18.76,-6.26 116.06,-42.33 125.59,-42.33 13.86,0 32.49,9 40.69,16.28 24.42,21.71 25.2,62.94 -1.1,83.28 -9.56,7.39 -33.24,15.44 -45.59,20.39l-565.48 226.19c-117.98,47.19 -125.06,30.19 -265.55,-12.9l-158.55 -48.37 0 -299.87 70.67 -19.29c98.66,-28.19 138.23,-28.94 237.59,-4.1 47.96,11.99 96.34,24.31 146.37,36.56 80.61,19.74 48.85,88.78 1.18,88.78l0 0.02 0 -0zm200.91 -23.99l-104.96 0 -3 -47.98c9.5,-4.55 27.11,-8.81 38.61,-12.36 13.54,-4.19 26.9,-8.16 41.7,-12.28 26.53,-7.39 52.59,-16.11 80.54,-24.41 14.31,-4.25 151.75,-46.91 163.01,-46.91 29.81,0 54.17,23.06 59.98,47.98 -8.3,3.98 -23.06,8.93 -32.6,12.38l-205.57 73.32c-10.4,4.03 -25.85,10.26 -37.72,10.26l0 -0.01 -0 0zm-137.94 -92.96c-4.37,0 -19.94,-10.81 -28.3,-13.68 -31.79,-10.9 -226.85,-58.29 -250.58,-58.29 48.06,-71.76 100.24,-34.74 154.04,-61.87 30.64,-15.46 38.09,-41.37 54.04,-53.92 113.85,-89.49 185.2,35.8 203.96,48.6 32.78,22.36 43.85,11.68 83.71,18.24 29.1,4.8 55.08,17.64 68.01,36.95l-69.34 20.62c-24.06,7.45 -47.17,14.3 -71.22,21.74l-144.31 41.61 0 0.01 -0 -0zm134.94 -362.84c-64.32,0 -65.61,-17.49 -89.96,-24 6.56,-9.8 50.23,-53.21 61.19,-61.76 42.65,-33.22 93.93,-44.52 146.16,-25.65 12.61,4.55 22.77,12.83 32.54,15.44 -6.56,9.8 -50.23,53.21 -61.19,61.75 -22.72,17.7 -49.81,34.2 -88.74,34.2l0 0.01 0 0zm-101.95 -287.88c5.01,-6.83 62.61,-36.3 75.55,-44.39l70.49 -52.46c38.35,-32.3 36.6,-36.22 61.59,-61.35 13.96,-14.03 44.78,-53.72 53.24,-69.7 -14.53,-7.68 -28.49,-17.96 -41.98,-26.99 -28.69,54.21 -102.8,123.59 -157.72,160.14 -11.7,7.79 -20.89,13.82 -33.27,20.71 -14.5,8.07 -23.45,15.94 -36.91,17.07 0,-18.84 -7.7,-37.04 -13.09,-52.89 -3.03,-8.93 -19.9,-46.68 -19.9,-49.08 0,-20.39 60.64,-81.6 87.36,-101.56 110.32,-82.39 195.63,-75.37 335.46,-75.37 0,30.63 -5.72,51.06 -11.96,75 -28.24,108.32 -112.48,194.06 -214.63,235.18 -45.15,18.17 -92.35,25.67 -154.25,25.67l0.02 0 0 0zm-524.78 -335.85c169.47,0 231.34,-7.26 356.41,93.4 43.38,34.92 84.85,102.11 102.08,155.81 5.78,18.02 13.59,51.1 15.31,71.65 -29.93,-15.83 -62.46,-28.35 -93.97,-43.96 -29.94,-14.83 -58.83,-33.92 -84.67,-53.28 -41.14,-30.82 -109.32,-97.48 -133.22,-142.65 -13.5,9.03 -27.46,19.31 -41.98,26.99 6.04,11.43 16.38,24.94 24.39,35.58 9.41,12.51 17.72,22.95 28.88,34.09 24.61,24.58 21.98,28.04 61.56,61.38 11.48,9.66 21.06,17.79 33.37,26.61 49.02,35.13 55.69,37.22 104.77,63.15l10.91 7.08c-128.61,0 -181.72,-27.36 -266.89,-92.95 -62.19,-47.89 -116.94,-159.96 -116.94,-242.91l0.01 0 -0.01 0zm-50.98 -24c0,143 78.17,284.83 199.94,351.83 122.62,67.47 188.74,56 327.84,56l0 329.87c0,11.38 -7.83,8.3 -18.95,11.03 -93.1,22.87 -84.48,87.24 -137.04,90.85 -26.9,1.85 -34.95,-0.98 -57.32,5.65 -42.25,12.51 -95.31,50.81 -104.54,90.37 -55.54,0 -90.58,12.36 -134.3,24.64 -73.49,20.64 -60.81,23.34 -138.6,23.34l-239.9 0c-28.47,-0.02 -56.97,-5.08 -56.97,23.99l0 431.82c0,14.51 9.48,23.99 23.99,23.99l191.92 0c28.52,0 23.99,-28.27 23.99,-47.98 131.92,0 143.94,13.22 143.94,-38.98l151.04 46.89c128.86,42.34 167.23,59.67 290.21,10.52l552.62 -221.06c34.67,-13.86 65.86,-22.61 89.2,-51.74 33.77,-42.14 25.29,-108.61 -16.34,-143.64 -28.14,-23.68 -52.48,-24.82 -86.14,-24.82 -27.26,-56.82 -43.89,-80.97 -125.95,-80.97 -5.19,-19.44 -43.87,-47.33 -61.66,-55.29 -83.09,-37.15 -91.75,7.03 -129.4,-44.52 -9.02,-12.35 -16.96,-21.43 -29.07,-30.91 -21.79,-17.06 -33.88,-23.17 -59.08,-30.89 -8.3,-2.54 -16.98,-3.1 -23.67,-6.31l0 -68.97 43.85 16.11c65.94,20.01 140.66,-2.49 181.86,-42.29 15.72,-15.18 86.16,-79.22 86.16,-96.78 0,-14.51 -12.94,-24.57 -22.21,-31.76 -65.25,-50.63 -148.51,-57.7 -220.61,-16.13 -30.76,17.74 -45.08,43.84 -69.06,59.89l0 -155.93c100.74,0 144.16,-8.63 229.88,-55 10.89,-5.89 19.06,-11.73 29.24,-18.74 42.05,-29.04 91.83,-81.4 116.67,-126.23 19.97,-36.04 31.29,-60.76 42.82,-101.12 11.29,-39.52 13.21,-65.71 13.21,-106.74 0,-14.51 -9.48,-23.99 -23.99,-23.99 -144.92,0 -224.92,-13.23 -349.85,54.98 -29.85,16.3 -79.51,56.4 -100.41,82.52 -7.59,9.49 -23.56,25.24 -26.54,36.43l-6 0c-7.87,-29.48 -92.96,-100.54 -126.96,-118.93 -8.48,-4.6 -11.2,-6.83 -18.98,-11.01 -103.17,-55.48 -215.04,-43.98 -330.86,-43.98 -14.5,0 -23.99,9.48 -23.99,24l0.01 0.01 -0.01 -0z"/>
 </g>
</svg>
