<?xml version="1.0" encoding="UTF-8"?>
<!DOCTYPE svg PUBLIC "-//W3C//DTD SVG 1.1//EN" "http://www.w3.org/Graphics/SVG/1.1/DTD/svg11.dtd">
<!-- Creator: CorelDRAW 2018 (64 Bit Versão de avaliação) -->
<svg xmlns="http://www.w3.org/2000/svg" xml:space="preserve" width="1.77165in" height="1.77165in" version="1.1" style="shape-rendering:geometricPrecision; text-rendering:geometricPrecision; image-rendering:optimizeQuality; fill-rule:evenodd; clip-rule:evenodd"
viewBox="0 0 1771.65 1771.65"
 xmlns:xlink="http://www.w3.org/1999/xlink">
 <defs>
  <style type="text/css">
   <![CDATA[
    .fil0 {fill:white}
   ]]>
  </style>
 </defs>
 <g id="Camada_x0020_1">
  <metadata id="CorelCorpID_0Corel-Layer"/>
  <path class="fil0" d="M112.28 1232.92l160 0 0 426.67 -160 0 0 -426.67zm213.33 0l106.67 0 0 373.33 -106.67 0 0 -373.33zm666.67 106.67l-266.67 0 0 53.33 276.67 0c37.64,0 51.38,-20.33 64.98,-25.02 25.37,-8.74 150.39,6.4 181.84,-4.83l203.56 -73.1c20.85,-6.96 129.01,-47.06 139.61,-47.06 15.4,0 36.12,10 45.23,18.1 27.14,24.13 28.01,69.96 -1.23,92.57 -10.62,8.21 -36.95,17.17 -50.67,22.66l-628.57 251.43c-131.14,52.45 -139.02,33.55 -295.18,-14.34l-176.24 -53.76 0 -333.33 78.56 -21.44c109.66,-31.33 153.65,-32.17 264.1,-4.56 53.31,13.33 107.1,27.02 162.7,40.64 89.6,21.94 54.3,98.69 1.31,98.69zm223.33 -26.67l-116.67 0 -3.33 -53.33c10.56,-5.06 30.13,-9.79 42.92,-13.74 15.05,-4.65 29.9,-9.07 46.35,-13.65 29.49,-8.21 58.46,-17.91 89.53,-27.13 15.91,-4.72 168.68,-52.14 181.2,-52.14 33.14,0 60.21,25.63 66.67,53.33 -9.22,4.42 -25.63,9.92 -36.24,13.76l-228.5 81.5c-11.56,4.48 -28.74,11.41 -41.93,11.41zm-153.33 -103.33c-4.85,0 -22.16,-12.02 -31.46,-15.21 -35.34,-12.12 -252.16,-64.79 -278.54,-64.79 53.42,-79.77 111.42,-38.61 171.22,-68.78 34.06,-17.18 42.34,-45.99 60.07,-59.93 126.55,-99.48 205.86,39.79 226.72,54.02 36.44,24.85 48.74,12.98 93.05,20.28 32.35,5.33 61.23,19.61 75.6,41.07l-77.08 22.92c-26.74,8.28 -52.43,15.89 -79.17,24.16l-160.41 46.25zm150 -403.33c-71.5,0 -72.93,-19.44 -100,-26.67 7.29,-10.89 55.84,-59.15 68.02,-68.65 47.41,-36.93 104.41,-49.48 162.47,-28.51 14.02,5.06 25.31,14.26 36.17,17.16 -7.29,10.89 -55.84,59.15 -68.02,68.64 -25.26,19.68 -55.37,38.02 -98.64,38.02zm-113.33 -320c5.57,-7.6 69.6,-40.35 83.98,-49.34l78.36 -58.31c42.63,-35.9 40.69,-40.26 68.47,-68.2 15.51,-15.59 49.78,-59.71 59.18,-77.48 -16.15,-8.54 -31.67,-19.96 -46.67,-30 -31.89,60.26 -114.27,137.38 -175.32,178.01 -13.01,8.66 -23.22,15.36 -36.98,23.02 -16.12,8.97 -26.07,17.72 -41.03,18.97 0,-20.94 -8.56,-41.17 -14.55,-58.79 -3.37,-9.92 -22.12,-51.88 -22.12,-54.55 0,-22.67 67.41,-90.71 97.11,-112.89 122.63,-91.58 217.46,-83.77 372.89,-83.77 0,34.05 -6.36,56.75 -13.3,83.37 -31.39,120.41 -125.03,215.71 -238.58,261.42 -50.19,20.2 -102.65,28.54 -171.46,28.54zm-583.33 -373.33c188.38,0 257.15,-8.07 396.18,103.82 48.22,38.81 94.31,113.5 113.47,173.19 6.43,20.03 15.11,56.8 17.02,79.65 -33.27,-17.6 -69.43,-31.52 -104.46,-48.87 -33.28,-16.49 -65.39,-37.7 -94.12,-59.22 -45.73,-34.26 -121.52,-108.36 -148.09,-158.57 -15,10.04 -30.52,21.46 -46.67,30 6.72,12.7 18.21,27.72 27.11,39.55 10.46,13.91 19.7,25.51 32.1,37.9 27.35,27.32 24.43,31.17 68.43,68.23 12.76,10.74 23.41,19.78 37.09,29.58 54.49,39.05 61.9,41.38 116.46,70.2l12.13 7.87c-142.97,0 -202,-30.41 -296.67,-103.32 -69.13,-53.24 -129.99,-177.81 -129.99,-270.01zm-56.67 -26.67c0,158.95 86.89,316.61 222.25,391.08 136.3,75 209.8,62.25 364.42,62.25l0 366.67c0,12.65 -8.71,9.23 -21.07,12.26 -103.49,25.42 -93.91,96.97 -152.34,100.99 -29.9,2.06 -38.85,-1.09 -63.72,6.28 -46.96,13.91 -105.95,56.48 -116.2,100.46 -61.74,0 -100.69,13.74 -149.28,27.39 -81.69,22.94 -67.6,25.94 -154.06,25.94l-266.67 0c-31.65,-0.02 -63.33,-5.65 -63.33,26.67l0 480c0,16.13 10.54,26.67 26.67,26.67l213.33 0c31.7,0 26.67,-31.42 26.67,-53.33 146.64,0 160,14.7 160,-43.33l167.89 52.12c143.24,47.06 185.89,66.33 322.59,11.69l614.28 -245.72c38.53,-15.41 73.21,-25.13 99.15,-57.51 37.54,-46.84 28.11,-120.72 -18.17,-159.66 -31.28,-26.32 -58.33,-27.59 -95.75,-27.59 -30.3,-63.16 -48.78,-90 -140,-90 -5.77,-21.61 -48.76,-52.62 -68.54,-61.46 -92.36,-41.3 -101.99,7.81 -143.84,-49.49 -10.03,-13.73 -18.85,-23.82 -32.31,-34.36 -24.22,-18.97 -37.66,-25.76 -65.67,-34.33 -9.22,-2.82 -18.87,-3.45 -26.31,-7.02l0 -76.67 48.75 17.91c73.3,22.24 156.35,-2.77 202.15,-47.01 17.47,-16.87 95.77,-88.06 95.77,-107.57 0,-16.13 -14.39,-27.31 -24.69,-35.31 -72.53,-56.28 -165.08,-64.14 -245.22,-17.93 -34.19,19.72 -50.11,48.73 -76.76,66.57l0 -173.33c111.98,0 160.25,-9.59 255.53,-61.13 12.11,-6.55 21.19,-13.04 32.5,-20.84 46.74,-32.28 102.07,-90.48 129.69,-140.31 22.2,-40.06 34.78,-67.54 47.6,-112.4 12.55,-43.92 14.68,-73.04 14.68,-118.65 0,-16.13 -10.54,-26.67 -26.67,-26.67 -161.09,0 -250.01,-14.71 -388.88,61.12 -33.18,18.12 -88.38,62.69 -111.61,91.72 -8.44,10.55 -26.19,28.06 -29.5,40.5l-6.67 0c-8.75,-32.77 -103.34,-111.76 -141.13,-132.2 -9.43,-5.11 -12.45,-7.59 -21.09,-12.24 -114.68,-61.67 -239.03,-48.89 -367.78,-48.89 -16.12,0 -26.67,10.54 -26.67,26.67z"/>
 </g>
</svg>
