<?xml version="1.0" encoding="UTF-8"?>
<!DOCTYPE svg PUBLIC "-//W3C//DTD SVG 1.1//EN" "http://www.w3.org/Graphics/SVG/1.1/DTD/svg11.dtd">
<!-- Creator: CorelDRAW 2018 (64 Bit Versão de avaliação) -->
<svg xmlns="http://www.w3.org/2000/svg" xml:space="preserve" width="1.77165in" height="1.5748in" version="1.1" style="shape-rendering:geometricPrecision; text-rendering:geometricPrecision; image-rendering:optimizeQuality; fill-rule:evenodd; clip-rule:evenodd"
viewBox="0 0 1771.65 1574.8"
 xmlns:xlink="http://www.w3.org/1999/xlink">
 <defs>
  <style type="text/css">
   <![CDATA[
    .fil0 {fill:#FFEE5C}
   ]]>
  </style>
 </defs>
 <g id="Camada_x0020_1">
  <metadata id="CorelCorpID_0Corel-Layer"/>
  <g id="_2048917787024">
   <g id="_1786899046432">
    <g id="_2461514605920">
     <path class="fil0" d="M539.65 1308.49l0 0zm293.33 53.33l0 -253.33 103.33 0c-0.52,23.27 -25.6,115.46 -35.63,141.04 -15.33,39.07 -36.86,91.64 -67.7,112.3l0 -0.01 0 0zm-156.67 -253.33l103.33 0 0 253.33c-48.49,-32.47 -101.97,-204.06 -103.33,-253.33zm-203.33 0l146.67 0c1.68,20.22 9.46,46.21 13.6,66.4 9.26,45.12 31.33,107.2 50.79,149.21 5.35,11.55 10.15,17.41 15.61,27.72 -40.87,-9.52 -110.86,-68.12 -135.69,-97.65 -28.5,-33.9 -50.37,-65.86 -72.05,-104.62l-14.55 -28.79c-2.07,-4.67 -3.38,-10.03 -4.38,-12.28l0 0.01 0 -0zm66.67 200c-20.96,-4.89 -76.72,-45.99 -96.22,-60.45 -11.94,-8.86 -16.87,-14.88 -29.04,-24.29 -11.16,-8.63 -17.5,-16.43 -27.25,-26.09 -24.02,-23.81 -52.72,-62.14 -70.82,-89.17l96.67 0c46.28,96.45 35.43,84.5 106.66,176.67 7,9.06 13.99,14.35 20,23.33l0 0 -0 0zm-316.67 -480l0 -13.33 130 0c0,60.53 10.85,130.26 24.63,185.37 4.98,19.91 11.11,36.34 15.37,54.63l-110 0c-3.06,-13.12 -28.39,-63.7 -39.34,-103.99 -9.19,-33.8 -20.66,-81.95 -20.66,-122.67l0 -0.01zm423.33 -13.33l133.33 0 0 240 -113.33 0c-2.71,-32.61 -12.88,-82.38 -13.35,-116.65l-6.65 -123.35zm-240 0l186.67 0 6.16 130.51c2.2,20.84 2.22,35.39 4.43,55.57 1.74,15.91 6.07,35.63 6.07,53.93l-160 0c-0.07,-0.81 -29.09,-105.47 -36.95,-173.05 -1.44,-12.43 -2.99,-59.37 -6.38,-66.95l0 -0.01zm260 -293.33l113.33 0 0 240 -133.33 0 15.63 -211.04c1.68,-11.47 3.61,-19.93 4.37,-28.96zm-73.33 220l0 20 -186.67 0c5.9,-25.33 5.89,-96.22 27.33,-182.68 3.93,-15.83 14.77,-42.46 16.01,-57.32l160 0 -10.22 106.44c-2.82,37.14 -6.44,71.69 -6.44,113.56l-0.01 0zm-240 20l-130 0c0,-131.87 51.72,-204.47 60,-240l110 0c-4.26,18.3 -10.38,34.67 -15.35,54.65 -13.82,55.49 -24.65,123.87 -24.65,185.35zm426.67 -546.67l0 253.33 -103.33 0c0.59,-26.35 26.83,-114.23 36.24,-140.43 12.93,-36.01 39.49,-94.43 67.09,-112.91l0 0.01 0 -0zm-240 53.33c-8.81,13.16 -41.06,45.66 -71.37,91.96 -24.61,37.58 -37.16,70.26 -55.29,108.04l-96.67 0c40.49,-60.46 59.04,-80.8 110.74,-125.92 6.7,-5.85 6.59,-6.32 14.45,-12.22 21.44,-16.08 76.82,-56.89 98.14,-61.86zm533.33 0l0 0zm-533.33 0l0 0zm80 200l-146.67 0c9.02,-38.73 62.23,-109.75 89.5,-143.83 23.77,-29.7 96.32,-89.98 137.17,-99.5l-26.67 53.33c-7.81,15.95 -15.72,38.95 -21.44,58.56 -10.41,35.63 -29.02,97.12 -31.88,131.45l-0.01 -0.01 0 0zm453.33 -200c15.77,3.67 24.97,16.04 42.51,12.91 13.99,-2.5 26.66,-18.04 18.87,-37.34 -10.66,-26.42 -134.39,-67.53 -164.69,-75.59 -33.97,-9.05 -62.52,-12.39 -101.88,-18.13 -157.63,-22.98 -339.76,41.6 -460.11,136.19 -40.72,32.01 -86.48,81.26 -117.57,122.43 -18.67,24.72 -30.17,46.49 -46.5,73.5 -29.43,48.69 -51.56,117.76 -64.67,175.32 -30.53,133.93 -7.57,285.22 48.46,406.28 7.19,15.52 13.28,24.59 21.09,38.91 47.76,87.46 118.8,162.77 201.8,218.2 196.48,131.21 446.18,143.52 658.39,33.04 35.36,-18.41 15,-67.14 -23.35,-50.27 -52.51,23.09 -113.03,55.73 -179.02,61.22 52.33,-98.9 64.96,-139.67 88.07,-261.93 5.43,-28.73 27.44,-130.93 9.03,-148.57 -17.08,-16.37 -43.1,-7.74 -47.15,20.46l-9.95 80.05 -113.33 0 0 -840c16.43,11 30.56,33.45 41.07,52.26 8.65,15.48 21.53,56.11 32.89,63.82 25.39,17.24 52.18,-7.56 38.14,-41.48 -14.96,-36.14 -16.13,-34.42 -32.11,-64.61 35.8,8.34 91.98,53.56 115.83,77.5 11.48,11.51 33.78,47.22 60.22,28.61 31.93,-22.46 -13.07,-58.31 -16.06,-62.78l0.01 0 0 0z"/>
     <path class="fil0" d="M1392.97 1215.16l160 0 0 160 -160 0 0 -160zm-53.33 -26.67l0 213.33c0,16.13 10.54,26.67 26.67,26.67l213.33 0c16.13,0 26.67,-10.54 26.67,-26.67l0 -213.33c0,-16.13 -10.54,-26.67 -26.67,-26.67l-213.33 0c-16.13,0 -26.67,10.54 -26.67,26.67z"/>
     <path class="fil0" d="M1392.97 521.83l160 0 0 160 -160 0 0 -160zm-53.33 -26.67l0 213.33c0,16.12 10.54,26.67 26.67,26.67l213.33 0c16.13,0 26.67,-10.54 26.67,-26.67l0 -213.33c0,-16.13 -10.54,-26.67 -26.67,-26.67l-213.33 0c-16.13,0 -26.67,10.54 -26.67,26.67z"/>
     <path class="fil0" d="M1232.97 255.17l106.67 0 0 106.67 -106.67 0 0 -106.67zm-53.33 -26.67l0 160c0,16.13 10.54,26.67 26.67,26.67l160 0c16.12,0 26.67,-10.54 26.67,-26.67l0 -160c0,-16.12 -10.54,-26.67 -26.67,-26.67l-160 0c-16.13,0 -26.67,10.54 -26.67,26.67z"/>
     <path class="fil0" d="M1072.97 1108.49l106.67 0 0 106.67 -106.67 0 0 -106.67zm-53.33 -26.67l0 160c0,16.13 10.54,26.67 26.67,26.67l160 0c16.12,0 26.67,-10.54 26.67,-26.67l0 -160c0,-16.12 -10.54,-26.67 -26.67,-26.67l-160 0c-16.12,0 -26.67,10.54 -26.67,26.67z"/>
     <path class="fil0" d="M1232.97 815.16l106.67 0 0 106.67 -106.67 0 0 -106.67zm-53.33 -26.67l0 160c0,16.12 10.54,26.67 26.67,26.67l160 0c16.12,0 26.67,-10.54 26.67,-26.67l0 -160c0,-16.12 -10.54,-26.67 -26.67,-26.67l-160 0c-16.13,0 -26.67,10.54 -26.67,26.67z"/>
     <path class="fil0" d="M939.64 441.83l53.33 0 0 53.33 -53.33 0 0 -53.33zm-53.33 -26.67l0 106.67c0,16.12 10.54,26.67 26.67,26.67l106.67 0c16.12,0 26.67,-10.54 26.67,-26.67l0 -106.67c0,-16.13 -10.54,-26.67 -26.67,-26.67l-106.67 0c-16.12,0 -26.67,10.54 -26.67,26.67z"/>
     <path class="fil0" d="M912.97 815.16l53.33 0 0 53.33 -53.33 0 0 -53.33zm-53.33 -26.67l0 106.67c0,16.13 10.54,26.67 26.67,26.67l106.67 0c16.13,0 26.67,-10.54 26.67,-26.67l0 -106.67c0,-16.12 -10.54,-26.67 -26.67,-26.67l-106.67 0c-16.12,0 -26.67,10.54 -26.67,26.67z"/>
     <path class="fil0" d="M1099.64 628.5l53.33 0 0 53.33 -53.33 0 0 -53.33zm-53.33 -26.67l0 106.67c0,16.12 10.54,26.67 26.67,26.67l106.67 0c16.12,0 26.67,-10.54 26.67,-26.67l0 -106.67c0,-16.13 -10.54,-26.67 -26.67,-26.67l-106.67 0c-16.12,0 -26.67,10.54 -26.67,26.67z"/>
    </g>
   </g>
  </g>
 </g>
</svg>
